<svg id="Capa_1" data-name="Capa 1" xmlns="http://www.w3.org/2000/svg" xmlns:xlink="http://www.w3.org/1999/xlink" viewBox="0 0 24 24"><defs><style>.cls-1{fill:url(#linear-gradient);}.cls-2{fill:#ff1753;}.cls-2,.cls-3,.cls-4{fill-rule:evenodd;}.cls-3{fill:#fff;}.cls-4{fill:#00c9d0;}</style><linearGradient id="linear-gradient" x1="3.51" y1="3.51" x2="20.49" y2="20.49" gradientUnits="userSpaceOnUse"><stop offset="0" stop-color="#23004a"/><stop offset="0.96" stop-color="#020003"/><stop offset="1"/></linearGradient></defs><title>TIK TOK</title><circle class="cls-1" cx="12" cy="12" r="12"/><path class="cls-2" d="M15.25,9.8a6,6,0,0,0,3.48,1.11V8.41A3.54,3.54,0,0,1,18,8.34v2a6,6,0,0,1-3.49-1.11v5.1a4.62,4.62,0,0,1-7.19,3.84,4.62,4.62,0,0,0,7.93-3.23V9.8Zm.9-2.52a3.5,3.5,0,0,1-.9-2V4.92h-.7a3.53,3.53,0,0,0,1.6,2.36ZM8.93,16.17a2.11,2.11,0,0,1,1.69-3.39,2,2,0,0,1,.64.1V10.32a6,6,0,0,0-.73,0v2a2.05,2.05,0,0,0-.65-.1,2.11,2.11,0,0,0-1,4Z"/><path class="cls-3" d="M14.51,9.19A6,6,0,0,0,18,10.3v-2a3.55,3.55,0,0,1-1.85-1.06,3.53,3.53,0,0,1-1.6-2.36H12.73v10a2.12,2.12,0,0,1-3.8,1.27,2.11,2.11,0,0,1,1-4,2,2,0,0,1,.65.1v-2A4.62,4.62,0,0,0,6,14.9a4.57,4.57,0,0,0,1.32,3.23,4.62,4.62,0,0,0,7.19-3.84Z"/><path class="cls-4" d="M18,8.34V7.81a3.52,3.52,0,0,1-1.85-.53A3.47,3.47,0,0,0,18,8.34ZM14.55,4.92c0-.1,0-.19,0-.29V4.31H12v10A2.13,2.13,0,0,1,9.88,16.4a2.18,2.18,0,0,1-1-.23,2.12,2.12,0,0,0,3.8-1.27v-10Zm-4,5.36V9.71c-.21,0-.43,0-.64,0a4.62,4.62,0,0,0-2.57,8.46A4.57,4.57,0,0,1,6,14.9a4.62,4.62,0,0,1,4.53-4.62Z"/></svg>