<!-- Generator: Adobe Illustrator 17.0.0, SVG Export Plug-In  -->
<svg version="1.1"
	 xmlns="http://www.w3.org/2000/svg" xmlns:xlink="http://www.w3.org/1999/xlink" xmlns:a="http://ns.adobe.com/AdobeSVGViewerExtensions/3.0/"
	 x="0px" y="0px" width="24px" height="24px" viewBox="0 0 24 24" enable-background="new 0 0 24 24" xml:space="preserve">
<defs>
</defs>
<g id="XMLID_3_">
	<circle id="XMLID_4_" fill="#2C417A" cx="12" cy="12" r="12"/>
	<path fill="#FFFFFF" d="M15.662,14.848h-4.476c-1.124,0-2.035-0.911-2.035-2.035V8.338c0-1.124,0.911-2.035,2.035-2.035h4.476
		c1.124,0,2.035,0.911,2.035,2.035v4.475C17.697,13.937,16.786,14.848,15.662,14.848z M16.482,8.343c0-0.45-0.364-0.814-0.814-0.814
		H11.19c-0.45,0-0.814,0.364-0.814,0.814v4.477c0,0.45,0.364,0.814,0.814,0.814h4.478c0.45,0,0.814-0.364,0.814-0.814V8.343z
		 M8.341,16.483h3.655c0.445,0,0.805-0.357,0.813-0.801h1.224c-0.011,1.114-0.916,2.014-2.033,2.014H8.337
		c-1.124,0-2.035-0.911-2.035-2.035v-3.661c0-1.123,0.91-2.034,2.034-2.035v1.235c-0.447,0.003-0.809,0.366-0.809,0.814v3.654
		C7.527,16.119,7.891,16.483,8.341,16.483z"/>
</g>
</svg>
