<!-- Generator: Adobe Illustrator 21.0.2, SVG Export Plug-In  -->
<svg version="1.1"
	 xmlns="http://www.w3.org/2000/svg" xmlns:xlink="http://www.w3.org/1999/xlink" xmlns:a="http://ns.adobe.com/AdobeSVGViewerExtensions/3.0/"
	 x="0px" y="0px" width="96px" height="96px" viewBox="0 0 96 96" style="enable-background:new 0 0 96 96;" xml:space="preserve">
<style type="text/css">
	.st0{fill:#F44336;}
</style>
<defs>
</defs>
<path class="st0" d="M93.6,24.4c-2.1-11.2-10.9-20-22.2-22.2C63.7,0.8,55.9,0,48,0c-8,0-15.9,0.8-23.7,2.2
	C13.1,4.4,4.4,13.1,2.2,24.3c-3,15.6-3,31.7,0,47.3c2.1,11.2,10.8,19.9,22,22.1C32.1,95.2,40,96,48,96c7.9,0,15.9-0.8,23.7-2.2
	c11.2-2.2,19.9-10.9,22-22C96.7,56.1,96.7,40,93.6,24.4z M68.1,68.2c-0.6,0.6-1.5,0.6-2.1,0l-18-18l-18,18c-0.6,0.6-1.6,0.6-2.2,0
	c-0.6-0.6-0.6-1.6,0-2.2l18-18l-18-18c-0.6-0.6-0.6-1.6,0-2.2c0.6-0.6,1.6-0.6,2.2,0l0,0l18,18l18-18c0.6-0.6,1.6-0.6,2.2,0
	s0.6,1.6,0,2.2l-18,18l18,18C68.7,66.6,68.7,67.5,68.1,68.2C68.1,68.1,68.1,68.1,68.1,68.2z"/>
</svg>
