<?xml version="1.0" encoding="utf-8"?>
<!-- Generator: Adobe Illustrator 24.0.2, SVG Export Plug-In . SVG Version: 6.00 Build 0)  -->
<svg version="1.1" id="Capa_1" xmlns="http://www.w3.org/2000/svg" xmlns:xlink="http://www.w3.org/1999/xlink" x="0px" y="0px"
	 viewBox="0 0 24 24" style="enable-background:new 0 0 24 24;" xml:space="preserve">
<style type="text/css">
	.st0{fill:url(#SVGID_1_);}
	.st1{fill:#FFFFFF;}
</style>
<g>
	<linearGradient id="SVGID_1_" gradientUnits="userSpaceOnUse" x1="20.3836" y1="3.4973" x2="3.4973" y2="20.3836">
		<stop  offset="1.104800e-03" style="stop-color:#FFE185"/>
		<stop  offset="0.2094" style="stop-color:#FFBB36"/>
		<stop  offset="0.3765" style="stop-color:#FF5176"/>
		<stop  offset="0.5238" style="stop-color:#F63395"/>
		<stop  offset="0.7394" style="stop-color:#A436D2"/>
		<stop  offset="1" style="stop-color:#5F4EED"/>
	</linearGradient>
	<circle class="st0" cx="11.9" cy="11.9" r="11.9"/>
	<g>
		<g>
			<path class="st1" d="M15.6,7.4c-0.5,0-0.8,0.4-0.8,0.8c0,0.5,0.4,0.8,0.8,0.8c0.5,0,0.8-0.4,0.8-0.8C16.5,7.8,16.1,7.4,15.6,7.4z
				"/>
			<path class="st1" d="M12,8.5c-1.9,0-3.4,1.5-3.4,3.4c0,1.9,1.5,3.4,3.4,3.4c1.9,0,3.4-1.5,3.4-3.4C15.4,10,13.9,8.5,12,8.5z
				 M12,14.1c-1.2,0-2.2-1-2.2-2.2s1-2.2,2.2-2.2c1.2,0,2.2,1,2.2,2.2S13.2,14.1,12,14.1z"/>
			<path class="st1" d="M14.7,18.9H9.1c-2.3,0-4.2-1.9-4.2-4.2V9.1c0-2.3,1.9-4.2,4.2-4.2h5.6c2.3,0,4.2,1.9,4.2,4.2v5.6
				C18.9,17,17.1,18.9,14.7,18.9z M9.1,6.2c-1.6,0-2.9,1.3-2.9,2.9v5.6c0,1.6,1.3,2.9,2.9,2.9h5.6c1.6,0,2.9-1.3,2.9-2.9V9.1
				c0-1.6-1.3-2.9-2.9-2.9H9.1z"/>
		</g>
	</g>
</g>
</svg>
