<!-- Generator: Adobe Illustrator 21.0.2, SVG Export Plug-In  -->
<svg version="1.1"
	 xmlns="http://www.w3.org/2000/svg" xmlns:xlink="http://www.w3.org/1999/xlink" xmlns:a="http://ns.adobe.com/AdobeSVGViewerExtensions/3.0/"
	 x="0px" y="0px" width="175.4px" height="42px" viewBox="0 0 175.4 42" style="enable-background:new 0 0 175.4 42;"
	 xml:space="preserve">
<style type="text/css">
	.st0{fill:url(#SVGID_1_);}
	.st1{fill:url(#SVGID_2_);}
	.st2{fill:url(#SVGID_3_);}
	.st3{fill:url(#SVGID_4_);}
</style>
<defs>
</defs>
<g id="XMLID_1_">
	<linearGradient id="SVGID_1_" gradientUnits="userSpaceOnUse" x1="45.8873" y1="20.9758" x2="175.3804" y2="20.9758">
		<stop  offset="0" style="stop-color:#4A4A4A"/>
		<stop  offset="3.030884e-02" style="stop-color:#646464"/>
		<stop  offset="8.085686e-02" style="stop-color:#888888"/>
		<stop  offset="0.1377" style="stop-color:#A8A8A8"/>
		<stop  offset="0.2006" style="stop-color:#C4C4C4"/>
		<stop  offset="0.2716" style="stop-color:#DADADA"/>
		<stop  offset="0.3545" style="stop-color:#EBEBEB"/>
		<stop  offset="0.457" style="stop-color:#F6F6F6"/>
		<stop  offset="0.6008" style="stop-color:#FDFDFD"/>
		<stop  offset="1" style="stop-color:#FFFFFF"/>
	</linearGradient>
	<path class="st0" d="M111.4,12.2c-0.3-0.3-0.7-0.8-1.2-0.8h-1.9l-1.6,19h3.6l1.4-16.7C111.9,13.2,111.7,12.5,111.4,12.2 M103,24.4
		c-0.1,1-0.4,1.8-1,2.3c-0.6,0.6-1.4,0.8-2.4,0.8c-0.6,0-1-0.1-1.3-0.4c-0.3-0.3-0.4-0.7-0.4-1.3c0-0.4,0.2-0.8,0.5-1.2
		c0.3-0.3,0.8-0.5,1.4-0.7l1.2-0.3c0.9-0.2,1.6-0.4,2.1-0.7L103,24.4z M105.5,16.8c-0.9-0.7-2.3-1-4.3-1c-1.7,0-3.1,0.3-4.1,1.1
		c-0.9,0.7-1.5,1.6-1.7,2.6h3.5c0.2,0,0.5-0.5,0.9-0.7c0.4-0.1,0.8-0.1,1.3-0.1c0.4,0,0.9,0.1,1.5,0.3c0.5,0.2,0.8,0.5,0.7,1
		c-0.1,0.7-0.9,1.2-2.4,1.4c-0.3,0-0.6,0.1-0.8,0.1c-0.2,0.1-0.5,0.1-0.6,0.1c-1.3,0.2-2.4,0.6-3.4,1.3c-0.9,0.6-1.4,1.7-1.5,3.2
		c-0.1,1.6,0.2,2.7,1.1,3.4c0.9,0.7,1.9,1,3.2,1c0.6,0,1.3,0,2.2-0.1c0.8-0.1,1.6-0.3,2.4-0.7c0.7-0.4,1.4-0.9,1.9-1.7
		c0.6-0.8,0.9-1.9,1-3.3l0.4-4.8C106.8,18.5,106.4,17.5,105.5,16.8 M90.6,23c-0.1,1.4-0.5,2.5-1.1,3.2c-0.6,0.7-1.4,1.1-2.3,1.1
		c-0.9,0-1.6-0.4-2.1-1.1c-0.4-0.7-0.6-1.7-0.4-3.2c0.1-1.3,0.5-2.3,1-3c0.6-0.7,1.4-1.1,2.3-1.1c0.9,0,1.6,0.4,2,1.1
		C90.6,20.8,90.7,21.7,90.6,23 M89.3,15.8c-0.9,0-1.7,0.2-2.3,0.5c-0.8,0.4-1.4,1-1.8,1.6l0.4-4.2c0-0.5-0.1-1.2-0.4-1.5
		c-0.3-0.4-0.7-0.8-1.2-0.8h-1.8l-1,12.3c-0.2,2.5,0.3,4.3,1.7,5.2c1.3,0.9,2.8,1.4,4.5,1.4c0.9,0,1.7-0.1,2.7-0.4
		c0.9-0.3,1.6-0.8,2.2-1.4c1.2-1.4,1.8-3.1,2-5.3c0.2-2.2-0.2-4-1.1-5.3C92.2,16.5,90.9,15.8,89.3,15.8 M76.8,23.1
		c-0.2,1.4-0.5,2.4-0.9,3.1c-0.5,0.6-1,1-1.5,1.2c-0.5,0.2-1.1,0.1-1.6-0.1c-0.5-0.2-0.8-0.4-1-0.7c-0.5-0.6-0.7-1.8-0.6-3.4
		c0.1-1.6,0.5-2.8,1.3-3.6c0.3-0.2,0.7-0.4,1.2-0.6c0.5-0.2,1-0.2,1.6,0c0.5,0.2,0.9,0.6,1.3,1.2C76.8,20.8,76.9,21.8,76.8,23.1
		 M77.2,16.2c-1.1-0.4-2.4-0.5-3.8-0.3c-1.4,0.2-2.6,0.8-3.6,1.9c-0.6,0.6-1.1,1.4-1.4,2.4c-0.3,1-0.6,1.9-0.6,2.9
		c-0.1,1.2,0,2.3,0.2,3.4c0.2,1.1,0.7,1.9,1.3,2.6c0.6,0.6,1.5,1.1,2.7,1.3c1.1,0.3,2.3,0.2,3.5-0.1c1.3-0.3,2.4-1,3.3-2.2
		c0.4-0.6,0.8-1.3,1.1-2.1c0.3-0.8,0.5-1.8,0.6-2.9c0.1-1.5,0-2.9-0.5-4.1C79.3,17.6,78.4,16.7,77.2,16.2 M67.5,12.2
		c-0.3-0.3-0.7-0.8-1.2-0.8h-1.9l-1.6,19h3.6l1.4-16.7C67.9,13.2,67.8,12.5,67.5,12.2 M51.4,16.3c1-1.1,2.2-1.6,3.7-1.6
		c1.1,0,2,0.2,2.7,0.7c0.4,0.4,0.7,0.6,0.9,1.1c0.3,0.7,0.8,0.9,1.5,0.9h2.5c-0.1-1-0.8-3.3-2.1-4.5c-1.4-1.1-3.1-1.6-5.4-1.6
		c-2.6,0-4.7,0.9-6.4,2.7c-1.6,1.7-2.6,4-2.8,6.9c-0.3,3,0.3,5.3,1.7,7c1.3,1.7,3.3,2.6,5.8,2.6c1.1,0,2.1-0.2,3-0.6
		c0.9-0.4,1.7-1.1,2.4-2l0.1,0.8c0.2,1,0.7,1.6,1.7,1.6h1l0.8-10h-7.4L55,21.6c0,0.5,0.1,1,0.4,1.3c0.3,0.4,0.8,0.5,1.3,0.5h2.2
		c-0.3,1-0.9,2.2-1.7,2.9c-0.8,0.7-1.8,1-3,1c-1.6,0-2.8-0.6-3.5-1.6c-0.8-1.1-1.1-2.7-0.9-4.7C49.8,19.1,50.4,17.5,51.4,16.3
		 M171.6,24.4c-0.1,1-0.4,1.8-1,2.3c-0.6,0.6-1.4,0.8-2.4,0.8c-0.6,0-1-0.1-1.3-0.4c-0.3-0.3-0.4-0.7-0.4-1.3c0-0.4,0.2-0.8,0.5-1.2
		c0.3-0.3,0.8-0.5,1.4-0.7l1.2-0.3c0.9-0.2,1.6-0.4,2.1-0.7L171.6,24.4z M174.1,16.8c-0.9-0.7-2.3-1-4.3-1c-1.7,0-3.1,0.3-4.1,1.1
		c-0.9,0.7-1.5,1.6-1.7,2.6h3.5c0.2,0,0.5-0.5,0.9-0.7c0.4-0.1,0.8-0.2,1.3-0.2c0.4,0,0.9,0.1,1.5,0.3c0.5,0.2,0.8,0.5,0.7,1
		c-0.1,0.7-0.9,1.2-2.4,1.4c-0.3,0-0.6,0.1-0.8,0.1c-0.2,0.1-0.5,0.1-0.6,0.1c-1.3,0.2-2.4,0.6-3.3,1.3c-0.9,0.6-1.4,1.7-1.5,3.2
		c-0.1,1.6,0.2,2.7,1.1,3.4c0.9,0.7,1.9,1,3.2,1c0.6,0,1.3,0,2.2-0.1c0.8-0.1,1.6-0.3,2.4-0.7c0.7-0.4,1.4-0.9,1.9-1.7
		c0.6-0.8,0.9-1.9,1-3.3l0.4-4.8C175.5,18.5,175.1,17.5,174.1,16.8 M162.9,16.8c-0.3-0.4-0.7-0.4-1.2-0.4h-1.9l-1.2,14h3.6l1.1-12.3
		C163.4,17.6,163.2,17.1,162.9,16.8 M163.7,14c0-0.5-0.1-1.3-0.4-1.7c-0.3-0.4-0.7-0.9-1.2-0.9h-1.9l-0.2,4h3.6L163.7,14z M154.6,23
		c-0.1,1.4-0.5,2.5-1,3.2c-0.6,0.7-1.3,1.1-2.3,1.1c-1,0-1.7-0.4-2.1-1.1c-0.5-0.7-0.6-1.8-0.5-3.2c0.1-1.3,0.5-2.3,1-3
		c0.6-0.7,1.3-1.1,2.2-1.1c0.9,0,1.6,0.4,2.1,1.1C154.5,20.7,154.7,21.7,154.6,23 M158.5,12.2c-0.3-0.4-0.7-0.8-1.2-0.8h-1.8
		l-0.5,6.3c-0.4-0.7-0.9-1.1-1.5-1.5c-0.6-0.4-1.4-0.5-2.2-0.5c-1.6,0-3,0.7-4.2,2.1c-1.1,1.3-1.8,3.1-2,5.4c-0.2,2.3,0.2,4,1,5.3
		c0.5,0.7,1.1,1.2,1.9,1.5c0.8,0.3,1.7,0.5,2.6,0.5c1.7,0,3.2-0.4,4.7-1.3c1.5-0.9,2.3-2.6,2.6-5.1l0.9-10.4
		C158.9,13.1,158.8,12.6,158.5,12.2 M135.7,21.4c0.1-1,0.4-1.5,1-2c0.5-0.5,1.2-0.7,1.9-0.7c0.8,0,1.4,0.2,1.9,0.6
		c0.4,0.5,0.6,1,0.5,2H135.7z M138.7,15.8c-2,0-3.6,0.7-4.8,2c-1.2,1.3-1.9,3-2.1,5.3c-0.2,2.4,0.2,4.2,1.2,5.4c1,1.3,2.5,2,4.4,2
		c1.6,0,3-0.6,4.1-1.4c1.1-0.8,2-1.6,2.5-3.6h-2.6c-0.4,0-0.7,0.3-1,0.5c-0.2,0.2-0.4,0.4-0.4,0.5c-0.1,0.1-0.2,0.2-0.3,0.3
		c-0.1,0.1-0.2,0.2-0.3,0.2c-0.4,0.2-0.9,0.4-1.5,0.4c-0.9,0-1.5-0.1-1.9-0.7c-0.4-0.5-0.6-2.2-0.6-2.2h9c0,0,0.1-0.4,0.1-0.6
		c0,0,0-0.2,0-0.3c0-0.1,0-0.3,0-0.4c0.2-2.3-0.2-4.2-1.2-5.5C142.4,16.4,140.8,15.8,138.7,15.8 M126.7,11.6l-4.8,13.8l-2.4-14h-3.6
		c-0.5,0-1,0.5-1.4,0.8c-0.4,0.4-0.6,1.1-0.7,1.6l-1.4,16.5h3.4l1.3-14.7l2.4,14.7h3.8l4.9-14.7L127,30.4h3.4l1.6-19h-5.3"/>
	<g>
		<radialGradient id="SVGID_2_" cx="20.5106" cy="21" r="20.7567" gradientUnits="userSpaceOnUse">
			<stop  offset="0" style="stop-color:#FFFFFF"/>
			<stop  offset="0.1521" style="stop-color:#FBFBFB"/>
			<stop  offset="0.3011" style="stop-color:#EFEFEF"/>
			<stop  offset="0.4488" style="stop-color:#DCDCDC"/>
			<stop  offset="0.5958" style="stop-color:#C0C0C0"/>
			<stop  offset="0.7423" style="stop-color:#9C9C9C"/>
			<stop  offset="0.8865" style="stop-color:#717171"/>
			<stop  offset="1" style="stop-color:#4A4A4A"/>
		</radialGradient>
		<path class="st1" d="M20.4,0C13.1,0,6.7,3.9,3,9.8c1.3-1.6,3.3-3.6,6.8-5.3c0-0.8,0.7-1.5,1.7-1.7c1.1-0.2,2.1,0.4,2.2,1.3
			C13.8,5,13.1,5.9,12,6c-0.5,0.1-1,0-1.4-0.2c-2.5,1.3-8.4,4.9-10,9.6c-0.2,0.6-0.3,1.3-0.4,2c2.5-3.3,8.8-8.8,19-12.5
			c0.2-1,0.9-1.8,1.8-2c1.2-0.2,2.4,0.8,2.6,2.2c0.2,1.4-0.6,2.7-1.8,2.9c-0.6,0.1-1.1-0.1-1.6-0.4c-1.8,0.8-8.7,3.8-13,7.1
			c-4.9,3.7-6.8,5.6-7.2,8.9c0.1,1.1,0.3,2.1,0.6,3.2c2-3.7,5.9-6.9,11.3-10.1c4.6-2.7,12.3-6,16.3-7.2c0.4-0.7,1.1-1.3,1.9-1.4
			c1.5-0.2,2.9,0.8,3.1,2.4c0.2,1.6-0.7,3.1-2.2,3.3c-0.7,0.1-1.5-0.1-2-0.5c-2,0.8-12.3,4.9-17,8c-5.3,3.5-6.9,5.4-9.5,8.6
			c0,0-0.5,0.4,0.1,1.7c0.5,1,1.2,1.9,1.8,2.7c1.1-2.3,4.4-5.2,8.8-7.7c6.9-3.9,11.5-6.3,13.2-6.9c0.3-0.7,0.9-1.2,1.7-1.4
			c1.3-0.2,2.5,0.8,2.7,2.2c0.2,1.4-0.6,2.8-1.9,3c-0.5,0.1-1,0-1.4-0.2c-1.9,0.8-8.9,4-12.3,6c-4,2.3-8.2,5.8-8.6,6.5
			c-0.3,0.5,0.2,0.9,0.7,1.4c0,0,0,0,0,0c1.3,1.1,2.7,2,4.2,2.7c0-0.1,0-0.2,0-0.3c0.4-1.2,4.4-5.6,11.4-8.3c0.1-1,0.9-1.8,1.8-2
			c1.2-0.2,2.4,0.7,2.6,1.9c0.2,1.3-0.6,2.4-1.8,2.6c-0.5,0.1-1.1,0-1.5-0.3c-2.5,1.2-7.1,3.9-10.3,7.2c0,0,0,0,0,0
			c2.1,0.7,4.4,1.2,6.7,1.2C31.8,42,41,32.6,41,21C41,9.4,31.8,0,20.4,0z"/>
	</g>
</g>
</svg>
