<!-- Generator: Adobe Illustrator 21.0.2, SVG Export Plug-In  -->
<svg version="1.1"
	 xmlns="http://www.w3.org/2000/svg" xmlns:xlink="http://www.w3.org/1999/xlink" xmlns:a="http://ns.adobe.com/AdobeSVGViewerExtensions/3.0/"
	 x="0px" y="0px" width="380.3px" height="152.3px" viewBox="0 0 380.3 152.3" style="enable-background:new 0 0 380.3 152.3;"
	 xml:space="preserve">
<style type="text/css">
	.st0{fill:#FFFFFF;}
</style>
<defs>
</defs>
<g>
	<path class="st0" d="M9.6,81.1c0.8,3.2,2.2,6.1,4,8.6c1.8,2.6,4.2,4.7,7,6.3c2.8,1.7,6.2,2.5,10.2,2.5c6.1,0,10.8-1.6,14.3-4.8
		c3.4-3.2,5.8-7.4,7.1-12.7h8.3c-1.8,7.7-5,13.7-9.7,18c-4.7,4.2-11.4,6.3-20,6.3c-5.4,0-10-0.9-13.9-2.8c-3.9-1.9-7.1-4.5-9.6-7.8
		C4.8,91.5,3,87.7,1.8,83.4C0.6,79,0,74.4,0,69.6c0-4.5,0.6-8.9,1.8-13.2c1.2-4.3,3-8.2,5.5-11.5c2.5-3.4,5.7-6.1,9.6-8.2
		c3.9-2.1,8.6-3.1,13.9-3.1c5.5,0,10.1,1.1,14,3.3c3.9,2.2,7,5.1,9.4,8.6c2.4,3.6,4.2,7.7,5.2,12.3c1.1,4.6,1.5,9.3,1.3,14.1H8.3
		C8.3,74.8,8.7,77.9,9.6,81.1z M50.8,55.7c-1-2.9-2.4-5.5-4.3-7.7c-1.8-2.2-4.1-4-6.7-5.4c-2.6-1.4-5.6-2-9-2c-3.4,0-6.5,0.7-9.1,2
		c-2.6,1.4-4.9,3.2-6.7,5.4c-1.8,2.2-3.3,4.8-4.4,7.8c-1.1,2.9-1.8,6-2.2,9h44.1C52.3,61.6,51.8,58.6,50.8,55.7z"/>
	<path class="st0" d="M72.2,35.5v11.7h0.3c1.6-4.1,4.4-7.5,8.4-10c4-2.5,8.5-3.8,13.3-3.8c4.8,0,8.7,0.6,11.9,1.8
		c3.2,1.2,5.8,3,7.7,5.2c1.9,2.2,3.3,5,4.1,8.2c0.8,3.3,1.2,6.9,1.2,11v43.8h-8.3V61.1c0-2.9-0.3-5.6-0.8-8.1
		c-0.5-2.5-1.5-4.7-2.8-6.5c-1.3-1.8-3.1-3.3-5.3-4.4c-2.2-1.1-5-1.6-8.4-1.6c-3.3,0-6.3,0.6-8.9,1.8c-2.6,1.2-4.8,2.8-6.6,4.9
		c-1.8,2.1-3.2,4.5-4.2,7.4c-1,2.9-1.6,6-1.6,9.3v39.7h-8.3V35.5H72.2z"/>
	<path class="st0" d="M145.5,9.4v94.2h-18.7V9.4H145.5z"/>
	<path class="st0" d="M186.8,0l-21.5,23.4h-13.1l14-23.4H186.8z M152.9,35.4v68.2h18.7V35.4H152.9z"/>
	<path class="st0" d="M196.3,35.4v9.5h0.4c2.4-4,5.5-6.8,9.2-8.6c3.8-1.8,7.7-2.7,11.6-2.7c5,0,9.1,0.7,12.3,2
		c3.2,1.4,5.7,3.3,7.6,5.7c1.8,2.4,3.1,5.4,3.9,8.8c0.7,3.5,1.1,7.3,1.1,11.6v42h-18.7V65.1c0-5.6-0.9-9.8-2.6-12.6
		c-1.8-2.8-4.9-4.2-9.4-4.2c-5.1,0-8.8,1.5-11.1,4.6c-2.3,3-3.4,8-3.4,15v35.8h-18.7V35.4H196.3z"/>
	<path class="st0" d="M268.9,87.3c2.8,2.7,6.9,4.1,12.1,4.1c3.8,0,7-0.9,9.8-2.8c2.7-1.9,4.4-3.9,5-6h16.5
		c-2.6,8.2-6.7,14-12.1,17.6c-5.5,3.5-12.1,5.3-19.8,5.3c-5.4,0-10.2-0.9-14.5-2.6c-4.3-1.7-8-4.2-11-7.3c-3-3.2-5.3-7-6.9-11.4
		c-1.6-4.4-2.4-9.2-2.4-14.5c0-5.1,0.8-9.9,2.5-14.3c1.7-4.4,4-8.2,7.1-11.4c3.1-3.2,6.8-5.7,11-7.6c4.3-1.8,9-2.8,14.2-2.8
		c5.8,0,10.9,1.1,15.2,3.4c4.3,2.2,7.9,5.3,10.6,9c2.8,3.8,4.8,8.1,6,12.9c1.2,4.8,1.7,9.9,1.3,15.2h-49.2
		C264.5,80.1,266.1,84.5,268.9,87.3z M290.1,51.3c-2.2-2.5-5.7-3.7-10.2-3.7c-3,0-5.5,0.5-7.5,1.5c-2,1-3.6,2.3-4.8,3.8
		c-1.2,1.5-2,3.1-2.5,4.8c-0.5,1.7-0.8,3.2-0.9,4.5h30.5C293.9,57.4,292.3,53.8,290.1,51.3z"/>
	<path class="st0" d="M315.9,56.4c0.3-4.4,1.4-8.1,3.3-11c1.9-2.9,4.4-5.2,7.4-7c3-1.8,6.4-3,10.1-3.8c3.7-0.7,7.5-1.1,11.3-1.1
		c3.4,0,6.9,0.2,10.4,0.7c3.5,0.5,6.7,1.4,9.6,2.8c2.9,1.4,5.3,3.4,7.1,5.9c1.8,2.5,2.8,5.8,2.8,10v35.5c0,3.1,0.2,6,0.5,8.8
		c0.3,2.8,1,4.9,1.8,6.3h-19c-0.4-1.1-0.6-2.1-0.9-3.2c-0.2-1.1-0.4-2.2-0.5-3.4c-3,3.1-6.5,5.2-10.6,6.5c-4,1.2-8.2,1.8-12.4,1.8
		c-3.3,0-6.3-0.4-9.1-1.2c-2.8-0.8-5.3-2-7.4-3.7c-2.1-1.7-3.8-3.8-4.9-6.3c-1.2-2.6-1.8-5.6-1.8-9.1c0-3.9,0.7-7.1,2-9.6
		c1.4-2.5,3.1-4.5,5.3-6c2.2-1.5,4.6-2.6,7.4-3.4c2.8-0.7,5.6-1.3,8.4-1.8c2.8-0.4,5.6-0.8,8.3-1.1c2.7-0.3,5.1-0.7,7.3-1.2
		c2.1-0.5,3.8-1.3,5-2.3c1.2-1,1.8-2.5,1.7-4.4c0-2-0.3-3.6-1-4.8c-0.7-1.2-1.5-2.1-2.6-2.8c-1.1-0.7-2.4-1.1-3.8-1.3
		c-1.5-0.2-3-0.3-4.7-0.3c-3.7,0-6.6,0.8-8.7,2.4c-2.1,1.6-3.3,4.2-3.7,7.9H315.9z M359.2,70.2c-0.8,0.7-1.8,1.3-3,1.6
		c-1.2,0.4-2.5,0.7-3.8,1c-1.4,0.3-2.8,0.5-4.3,0.7c-1.5,0.2-3,0.4-4.5,0.7c-1.4,0.3-2.8,0.6-4.2,1.1c-1.4,0.4-2.6,1-3.6,1.8
		c-1,0.7-1.8,1.7-2.4,2.8c-0.6,1.1-0.9,2.6-0.9,4.4c0,1.7,0.3,3.1,0.9,4.2c0.6,1.1,1.5,2,2.5,2.7c1.1,0.7,2.3,1.1,3.7,1.4
		c1.4,0.3,2.9,0.4,4.4,0.4c3.7,0,6.6-0.6,8.6-1.8c2-1.2,3.5-2.7,4.5-4.4c1-1.7,1.6-3.5,1.8-5.2c0.2-1.8,0.3-3.2,0.3-4.2V70.2z"/>
</g>
<g>
	<path class="st0" d="M96.1,145.4c0,5.8-5,6.9-9,6.9h-7.3c-5.9,0-7.5-3.3-7.5-5.7V146h3v0.5c0,2.5,2.5,3.2,5.5,3.2H84
		c6.4,0,8.9-0.1,8.9-5.2v-2.8h-0.1c-0.7,1.8-2,3-6.5,3h-6.6c-5.3,0-8-2.7-8-7.6v-3.2c0-6.9,5-7.7,8.6-7.7h6.8c2.4,0,4.9,0.6,5.9,3.7
		h0.1v-3.4h3V145.4z M92.9,134.5c0.1-3.6-1.2-5.8-5.7-5.8h-6.5c-3.3,0-5.6,0.9-5.7,4v3.5c0,4.4,1.5,5.7,5.5,5.7h6.2
		c4.6,0,6.3-1.8,6.3-5.1V134.5z"/>
	<path class="st0" d="M124.3,118.3h3.2v27.1h-3.2V118.3z"/>
	<path class="st0" d="M155.1,133.8c0-6.3,4.4-7.7,10.5-7.7h4.6c6.1,0,10.5,1.5,10.5,7.7v4.2c0,6.3-4.4,7.7-10.5,7.7h-4.6
		c-6.1,0-10.5-1.5-10.5-7.7V133.8z M177.5,134c0-4.4-2.6-5.3-6.4-5.3h-6.5c-3.7,0-6.4,0.9-6.4,5.3v3.8c0,4.4,2.6,5.3,6.4,5.3h6.5
		c3.7,0,6.4-0.9,6.4-5.3V134z"/>
	<path class="st0" d="M207.9,118.3h3.2v10.5h0.1c0.7-2,2.4-2.8,6.1-2.8h4.9c7.7,0,10.1,2.2,10.1,8.3v3.4c0,6.6-4.1,8-9.9,8h-4.5
		c-3.4,0-6-1-6.9-3.3h-0.1v3h-3V118.3z M229,133.9c0-4.4-2.2-5.2-6.6-5.2h-4.3c-4.3,0-7,0.7-7,5.3v3.6c0,3.5,1.5,5.5,6.3,5.5h5.2
		c5.2,0,6.4-1.8,6.4-5.5V133.9z"/>
	<path class="st0" d="M278.8,143.5L278.8,143.5c-0.9,1.7-1.9,2.2-6.9,2.2h-7.7c-4.9,0-6.1-2.1-6.1-5.7v-1.3c0-4.3,3.1-4.9,8.7-4.9
		h5.2c4.2,0,5.7,0.4,6.8,2.3h0.1v-3.6c0-3.4-2.2-3.9-7.1-3.9H267c-4,0-4.8,1-4.8,2.5v0.7H259v-0.9c0-3.5,2.2-4.9,8-4.9h5.1
		c6,0,10,0.9,10,6.6v12.8h-3.2V143.5z M278.8,139.4c0-2.6-2.3-3-7.3-3h-4.9c-4.1,0-5.3,0.6-5.3,3v0.6c0,2.1,0.7,3,5.2,3h4.3
		c5.8,0,8.1-0.4,8.1-2.8V139.4z"/>
	<path class="st0" d="M309.9,118.3h3.2v27.1h-3.2V118.3z"/>
</g>
</svg>
