<!-- Generator: Adobe Illustrator 17.0.0, SVG Export Plug-In  -->
<svg version="1.1"
	 xmlns="http://www.w3.org/2000/svg" xmlns:xlink="http://www.w3.org/1999/xlink" xmlns:a="http://ns.adobe.com/AdobeSVGViewerExtensions/3.0/"
	 x="0px" y="0px" width="738.762px" height="196.118px" viewBox="0 0 738.762 196.118" enable-background="new 0 0 738.762 196.118"
	 xml:space="preserve">
<defs>
</defs>
<path fill="#FFFFFF" d="M469.277,52.506c-1.336-1.412-3.022-2.115-5.059-2.115h-7.86l-6.575,76.569h15.282l5.944-69.228
	C471.188,55.661,470.608,53.92,469.277,52.506 M433.715,102.698c-0.353,4.15-1.8,7.419-4.332,9.79
	c-2.53,2.379-5.839,3.563-9.913,3.563c-2.474,0-4.315-0.592-5.523-1.78c-1.193-1.334-1.693-3.115-1.503-5.343
	c0.136-1.634,0.789-3.258,1.946-4.897c1.265-1.186,3.244-2.144,5.924-2.89l5.116-1.119c3.718-0.883,6.639-1.849,8.765-2.89
	L433.715,102.698z M444.329,70.645c-3.837-2.815-9.827-4.229-17.977-4.229c-7.282,0-13.03,1.708-17.253,5.12
	c-3.747,2.968-6.112,6.752-7.084,11.353h14.628c0.864-1.634,2.124-2.745,3.78-3.34c1.648-0.59,3.49-0.891,5.533-0.891
	c1.89,0,3.938,0.335,6.139,1.003c2.195,0.665,3.2,2.109,3.011,4.336c-0.258,2.973-3.623,4.902-10.108,5.791
	c-1.32,0.15-2.5,0.332-3.535,0.553c-1.039,0.225-1.922,0.338-2.648,0.338c-5.612,0.885-10.315,2.667-14.108,5.34
	c-3.796,2.672-5.961,7.124-6.491,13.352c-0.575,6.681,0.978,11.466,4.663,14.356c3.68,2.9,8.139,4.342,13.382,4.342
	c2.617,0,5.654-0.186,9.108-0.559c3.449-0.368,6.775-1.369,9.975-3c3.037-1.481,5.756-3.894,8.15-7.232
	c2.396-3.34,3.854-7.977,4.36-13.909l1.74-20.254C450.05,77.767,448.294,73.615,444.329,70.645 M381.788,96.913
	c-0.511,5.933-1.99,10.456-4.439,13.574c-2.453,3.113-5.717,4.677-9.792,4.677c-3.931,0-6.854-1.563-8.77-4.677
	c-1.795-2.814-2.425-7.344-1.891-13.574c0.458-5.349,1.912-9.569,4.365-12.69c2.438-2.968,5.696-4.455,9.771-4.455
	c3.783,0,6.632,1.565,8.549,4.675C381.509,87.415,382.246,91.564,381.788,96.913 M376.108,66.415c-3.784,0-7.048,0.746-9.796,2.228
	c-3.211,1.782-5.74,4.079-7.582,6.896l1.526-17.806c0.183-2.072-0.396-3.854-1.721-5.34c-1.331-1.481-3.011-2.228-5.048-2.228
	h-7.423l-4.375,50.976c-0.906,10.534,1.463,17.659,7.118,21.364c5.649,3.714,11.966,5.563,18.951,5.563
	c3.638,0,7.37-0.634,11.188-1.89c3.821-1.261,6.943-3.301,9.369-6.123c4.864-5.785,7.691-13.278,8.482-22.481
	c0.789-9.196-0.755-16.688-4.623-22.478C388.305,69.312,382.953,66.415,376.108,66.415 M323.663,97.132
	c-0.651,5.933-1.969,10.237-3.943,12.91c-1.979,2.67-4.121,4.342-6.437,5.01c-2.313,0.663-4.523,0.594-6.641-0.221
	c-2.109-0.815-3.553-1.821-4.327-3.013c-1.953-2.665-2.79-7.38-2.5-14.13c0.291-6.752,2.11-11.831,5.459-15.247
	c1.107-1.036,2.785-1.889,5.022-2.56c2.243-0.663,4.422-0.627,6.545,0.113c2.115,0.741,3.901,2.447,5.342,5.123
	C323.628,87.781,324.123,91.789,323.663,97.132 M325.059,68.197c-4.653-1.782-9.997-2.256-16.034-1.449
	c-6.045,0.816-11.14,3.451-15.31,7.905c-2.558,2.67-4.553,6.008-5.985,10.015c-1.437,4.006-2.326,8.015-2.668,12.019
	c-0.422,4.897-0.174,9.612,0.752,14.136c0.918,4.529,2.79,8.125,5.622,10.789c2.68,2.673,6.407,4.567,11.193,5.679
	c4.78,1.113,9.627,1.004,14.544-0.33c5.485-1.189,10.191-4.229,14.103-9.132c1.805-2.369,3.365-5.265,4.675-8.676
	c1.31-3.415,2.174-7.491,2.579-12.24c0.563-6.526-0.183-12.244-2.237-17.145C334.141,74.283,330.396,70.425,325.059,68.197
	 M284.239,52.506c-1.336-1.412-3.022-2.115-5.06-2.115h-7.859l-6.569,76.569h15.281l5.938-69.228
	C286.15,55.661,285.571,53.92,284.239,52.506 M216.435,68.866c4.032-4.603,9.18-6.904,15.44-6.904c4.8,0,8.564,1.041,11.302,3.121
	c1.764,1.486,3.08,3.115,3.948,4.892c1.212,2.826,3.348,4.234,6.407,4.234h10.476c-0.488-7.865-3.506-14.248-9.053-19.14
	c-5.718-4.602-13.242-6.904-22.553-6.904c-10.771,0-19.747,3.708-26.938,11.133c-6.871,7.119-10.828,16.841-11.887,29.154
	c-1.068,12.464,1.292,22.258,7.087,29.377c5.633,7.271,13.834,10.913,24.605,10.913c4.512,0,8.729-0.824,12.655-2.455
	c3.79-1.776,7.165-4.591,10.12-8.458l0.405,2.901c0.658,4.15,3.027,6.23,7.107,6.23h4.147l3.57-41.625h-31.223l-0.438,5.117
	c-0.189,2.23,0.411,4.117,1.806,5.678c1.395,1.556,3.185,2.335,5.365,2.335h9.169c-1.314,5.196-3.705,9.273-7.164,12.243
	c-3.443,2.82-7.639,4.229-12.587,4.229c-6.696,0-11.666-2.297-14.909-6.899c-3.379-4.749-4.712-11.275-3.995-19.588
	C209.996,80.295,212.376,73.757,216.435,68.866"/>
<path fill="#FFFFFF" d="M722.819,102.698c-0.358,4.15-1.803,7.419-4.33,9.79c-2.535,2.379-5.839,3.563-9.916,3.563
	c-2.479,0-4.315-0.592-5.521-1.78c-1.195-1.334-1.701-3.115-1.511-5.343c0.143-1.634,0.789-3.258,1.948-4.897
	c1.269-1.186,3.242-2.144,5.928-2.89l5.115-1.119c3.712-0.883,6.634-1.849,8.767-2.89L722.819,102.698z M733.432,70.645
	c-3.838-2.815-9.829-4.229-17.975-4.229c-7.284,0-13.032,1.708-17.256,5.12c-3.744,2.968-6.116,6.752-7.09,11.353h14.632
	c0.865-1.634,2.123-2.745,3.777-3.34c1.653-0.59,3.49-0.891,5.539-0.891c1.884,0,3.935,0.335,6.132,1.003
	c2.2,0.665,3.206,2.109,3.011,4.336c-0.253,2.973-3.621,4.902-10.101,5.791c-1.323,0.15-2.506,0.332-3.539,0.553
	c-1.042,0.225-1.928,0.338-2.652,0.338c-5.607,0.885-10.309,2.667-14.104,5.34c-3.797,2.672-5.959,7.124-6.497,13.352
	c-0.573,6.681,0.984,11.466,4.664,14.356c3.68,2.9,8.145,4.342,13.382,4.342c2.623,0,5.654-0.186,9.108-0.559
	c3.453-0.368,6.779-1.369,9.979-3c3.035-1.481,5.75-3.894,8.151-7.232c2.396-3.34,3.849-7.977,4.359-13.909l1.737-20.254
	C739.15,77.767,737.396,73.615,733.432,70.645 M686.332,69.974c-1.328-1.481-3.013-2.222-5.05-2.222h-7.86l-5.075,59.208h15.279
	l4.431-51.638C688.237,73.243,687.66,71.46,686.332,69.974 M689.548,57.958c0.178-2.077-0.4-3.858-1.729-5.339
	c-1.325-1.487-3.011-2.227-5.044-2.227h-7.86l-1.051,12.241h15.283L689.548,57.958z M651.029,96.913
	c-0.511,5.933-1.922,10.456-4.223,13.574c-2.453,3.113-5.64,4.677-9.571,4.677c-4.073,0-7.074-1.563-8.981-4.677
	c-1.921-3.118-2.627-7.642-2.116-13.574c0.453-5.349,1.906-9.497,4.345-12.47c2.453-3.11,5.564-4.675,9.355-4.675
	c3.928,0,6.929,1.487,9.007,4.455C650.76,87.343,651.487,91.564,651.029,96.913 M667.503,52.506c-1.324-1.559-3.01-2.34-5.041-2.34
	h-7.423l-2.178,25.374c-1.508-2.817-3.639-5.114-6.392-6.896c-2.644-1.481-5.787-2.228-9.418-2.228
	c-6.845,0-12.693,2.896-17.557,8.681c-4.707,5.638-7.46,13.129-8.258,22.478c-0.818,9.5,0.645,16.99,4.398,22.481
	c1.946,2.822,4.675,4.862,8.207,6.123c3.526,1.256,7.186,1.89,10.972,1.89c6.991,0,13.619-1.85,19.909-5.563
	c6.285-3.705,9.882-10.83,10.786-21.364l3.727-43.408C669.401,55.809,668.817,54.062,667.503,52.506 M571.569,91.347
	c0.473-3.861,1.821-6.829,4.038-8.906c2.218-2.074,4.926-3.115,8.126-3.115c3.492,0,6.097,1.042,7.813,3.115
	c1.58,1.935,2.342,4.902,2.289,8.906H571.569z M584.402,66.415c-8.295,0-15.007,2.749-20.135,8.238
	c-4.97,5.34-7.866,12.762-8.68,22.259c-0.856,9.936,0.819,17.578,5.019,22.918c4.186,5.495,10.429,8.238,18.727,8.238
	c6.838,0,12.661-1.707,17.467-5.117c4.789-3.264,8.254-8.014,10.396-14.244h-10.918c-1.748,0-3.124,0.368-4.135,1.107
	c-1.011,0.748-1.608,1.341-1.793,1.783c-0.474,0.445-0.909,0.854-1.305,1.227c-0.396,0.367-0.817,0.633-1.268,0.775
	c-1.833,1.04-3.99,1.563-6.465,1.563c-3.786,0-6.52-1.186-8.205-3.565c-1.854-2.228-2.65-5.636-2.398-10.24h37.774
	c0.167-0.295,0.28-0.815,0.351-1.557c0.01-0.141,0.036-0.445,0.072-0.888c0.037-0.447,0.084-0.963,0.133-1.556
	c0.842-9.797-0.833-17.439-5.023-22.929C599.68,69.091,593.135,66.415,584.402,66.415 M533.154,50.166l-19.868,58.542l-9.823-58.542
	h-15.066c-2.195,0.153-4.126,1.007-5.787,2.56c-1.662,1.562-2.589,3.451-2.777,5.678l-5.888,68.557h14.408l5.313-61.878
	l10.192,61.878h15.939l20.591-61.878l-5.308,61.878h14.408l6.592-76.795H533.154"/>
<g>
	<path fill="#FFFFFF" d="M86.067,0C54.94,0,27.646,16.711,12.336,41.809c5.459-6.614,13.99-15.369,28.831-22.935
		c0.129-3.343,3.121-6.371,7.209-7.04c4.542-0.746,8.708,1.7,9.302,5.464c0.594,3.763-2.61,7.419-7.148,8.166
		c-2.158,0.355-4.223-0.017-5.866-0.903C33.848,30.232,8.613,45.35,2.167,65.83c-0.661,2.551-1.21,5.147-1.647,7.783
		C10.808,59.578,37.396,36.41,80.549,20.784c0.757-4.192,3.733-7.564,7.739-8.22c5.235-0.857,10.229,3.227,11.161,9.12
		c0.931,5.896-2.557,11.374-7.788,12.231c-2.44,0.401-4.824-0.284-6.771-1.716c-7.49,3.237-36.472,16.147-54.595,29.72
		C9.601,77.418,1.427,85.691,0,99.753c0.558,4.47,1.446,8.833,2.635,13.069c8.257-15.626,25.025-29.147,47.794-42.668
		c19.373-11.501,51.877-25.428,68.697-30.467c1.607-3.14,4.493-5.468,8.059-6.054c6.177-1.011,12.039,3.562,13.087,10.213
		c1.049,6.652-3.109,12.867-9.286,13.878c-3.133,0.516-6.182-0.412-8.565-2.315c-8.497,3.331-51.627,20.526-71.617,33.846
		c-22.222,14.815-29.064,22.66-40.175,36.167c0,0-2.506,1.721,0.767,8.098c2.198,3.777,4.663,7.374,7.371,10.761
		c4.491-9.827,18.741-21.907,37.062-32.365c29.023-16.568,48.584-26.707,55.517-29.125c1.347-3.012,3.922-5.257,7.148-5.786
		c5.383-0.883,10.532,3.323,11.488,9.397c0.959,6.069-2.635,11.706-8.02,12.595c-2.023,0.328-4.011-0.055-5.755-0.988
		c-7.951,3.579-37.479,16.985-51.829,25.241c-16.67,9.579-34.461,24.497-36.331,27.447c-1.417,2.233,0.782,3.879,2.991,6.101
		c0,0-0.017,0.002-0.046,0.008c5.416,4.54,11.381,8.422,17.778,11.531c0.011-0.362,0.071-0.756,0.201-1.191
		c1.49-4.987,18.738-23.708,47.92-35.131c0.497-4.166,3.582-7.654,7.78-8.343c5.103-0.838,9.924,2.783,10.758,8.08
		c0.838,5.298-2.627,10.274-7.731,11.116c-2.315,0.38-4.574-0.166-6.429-1.365c-10.329,5.262-29.937,16.312-43.416,30.434
		c0,0-0.149,0.018-0.399,0.04c8.959,3.189,18.586,4.929,28.613,4.929c47.919,0,86.765-39.601,86.765-88.454
		C172.832,39.6,133.986,0,86.067,0z"/>
</g>
<g>
	<path fill="#FFFFFF" d="M231.912,167.742h2.556l-8.543,19.87h-2.136l-4.271-10.145l-4.233,10.145h-2.136l-8.543-19.87h2.518
		l7.246,17.201l3.776-9.077l-3.394-8.086h2.173l2.594,6.483l2.594-6.483h2.212l-3.394,8.086l3.776,9.077L231.912,167.742z"/>
	<path fill="#FFFFFF" d="M270.547,167.742h2.556l-8.543,19.87h-2.137l-4.271-10.145l-4.233,10.145h-2.136l-8.544-19.87h2.518
		l7.246,17.201l3.776-9.077l-3.394-8.086h2.173l2.594,6.483l2.594-6.483h2.212l-3.394,8.086l3.776,9.077L270.547,167.742z"/>
	<path fill="#FFFFFF" d="M309.182,167.742h2.556l-8.543,19.87h-2.136l-4.271-10.145l-4.233,10.145h-2.136l-8.543-19.87h2.518
		l7.246,17.201l3.776-9.077l-3.394-8.086h2.174l2.594,6.483l2.593-6.483h2.212l-3.395,8.086l3.776,9.077L309.182,167.742z"/>
	<path fill="#FFFFFF" d="M320.586,187.612v-3.737h2.25v3.737H320.586z"/>
	<path fill="#FFFFFF" d="M361.128,187.878c-1.373,0-2.626-0.285-3.757-0.857c-1.132-0.572-2.11-1.328-2.936-2.269
		c-0.828-0.941-1.469-2.021-1.927-3.242c-0.457-1.221-0.687-2.479-0.687-3.776c0-1.373,0.223-2.689,0.668-3.947
		c0.445-1.259,1.075-2.358,1.889-3.299c0.814-0.94,1.786-1.691,2.917-2.251c1.132-0.559,2.384-0.839,3.757-0.839
		c1.704,0,3.178,0.426,4.425,1.278c1.245,0.852,2.313,1.926,3.204,3.223v-4.157h2.326v19.947c0,1.373-0.261,2.587-0.782,3.642
		c-0.522,1.055-1.221,1.938-2.097,2.651c-0.878,0.712-1.908,1.245-3.089,1.602c-1.183,0.356-2.436,0.534-3.756,0.534
		c-2.29,0-4.133-0.407-5.531-1.221c-1.399-0.814-2.53-1.906-3.394-3.279l1.601-1.26c0.788,1.271,1.832,2.206,3.128,2.804
		c1.296,0.597,2.694,0.895,4.196,0.895c0.965,0,1.881-0.133,2.746-0.399c0.863-0.268,1.62-0.662,2.268-1.183
		c0.648-0.521,1.164-1.182,1.544-1.983c0.382-0.801,0.573-1.735,0.573-2.803v-3.93c-0.763,1.272-1.806,2.277-3.128,3.014
		C363.963,187.511,362.578,187.878,361.128,187.878z M361.853,185.706c0.763,0,1.513-0.14,2.25-0.42
		c0.737-0.279,1.404-0.654,2.002-1.125c0.597-0.471,1.1-0.998,1.506-1.583c0.407-0.585,0.674-1.183,0.802-1.792v-6.141
		c-0.281-0.712-0.662-1.373-1.145-1.983c-0.482-0.61-1.03-1.131-1.64-1.564c-0.61-0.431-1.265-0.774-1.964-1.029
		c-0.7-0.254-1.406-0.381-2.117-0.381c-1.12,0-2.117,0.235-2.994,0.705c-0.878,0.471-1.621,1.087-2.232,1.85
		c-0.61,0.763-1.074,1.628-1.393,2.594c-0.318,0.967-0.477,1.945-0.477,2.936c0,1.068,0.191,2.086,0.573,3.052
		c0.381,0.966,0.909,1.811,1.582,2.536c0.674,0.725,1.456,1.296,2.346,1.716C359.844,185.496,360.81,185.706,361.853,185.706z"/>
	<path fill="#FFFFFF" d="M384.47,159.771h2.594v23.341c0,0.737,0.203,1.316,0.61,1.735c0.406,0.42,0.978,0.629,1.717,0.629
		c0.278,0,0.609-0.037,0.991-0.114c0.382-0.076,0.737-0.178,1.068-0.305l0.456,2.098c-0.482,0.204-1.073,0.368-1.772,0.496
		c-0.7,0.126-1.304,0.19-1.811,0.19c-1.195,0-2.137-0.337-2.823-1.011c-0.687-0.673-1.029-1.621-1.029-2.842V159.771z"/>
	<path fill="#FFFFFF" d="M410.825,187.994c-1.45,0-2.772-0.273-3.967-0.819c-1.195-0.548-2.231-1.291-3.108-2.232
		c-0.877-0.941-1.558-2.034-2.04-3.28c-0.484-1.246-0.725-2.556-0.725-3.929c0-1.398,0.248-2.721,0.743-3.966
		c0.496-1.246,1.183-2.34,2.059-3.28c0.878-0.94,1.912-1.691,3.108-2.251c1.194-0.559,2.504-0.839,3.929-0.839
		c1.424,0,2.739,0.28,3.947,0.839c1.207,0.56,2.251,1.311,3.127,2.251c0.878,0.94,1.564,2.034,2.06,3.28
		c0.497,1.245,0.744,2.568,0.744,3.966c0,1.373-0.242,2.683-0.725,3.929c-0.483,1.246-1.163,2.339-2.041,3.28
		c-0.876,0.941-1.92,1.684-3.127,2.232C413.602,187.72,412.274,187.994,410.825,187.994z M403.616,177.772
		c0,1.119,0.191,2.155,0.572,3.108c0.381,0.954,0.897,1.793,1.545,2.518c0.648,0.725,1.412,1.29,2.288,1.697
		c0.877,0.407,1.813,0.61,2.804,0.61c0.991,0,1.926-0.21,2.804-0.63c0.876-0.42,1.646-0.991,2.307-1.716
		c0.66-0.725,1.183-1.57,1.564-2.536c0.38-0.966,0.572-2.009,0.572-3.128c0-1.093-0.192-2.129-0.572-3.108
		c-0.382-0.979-0.904-1.83-1.564-2.556c-0.661-0.725-1.431-1.296-2.307-1.716c-0.878-0.42-1.813-0.629-2.804-0.629
		c-0.991,0-1.92,0.209-2.784,0.629c-0.864,0.42-1.628,0.998-2.288,1.735c-0.662,0.738-1.184,1.596-1.565,2.574
		C403.807,175.605,403.616,176.654,403.616,177.772z"/>
	<path fill="#FFFFFF" d="M442.403,187.994c-1.577,0-3.02-0.394-4.328-1.182c-1.311-0.789-2.333-1.806-3.07-3.053v3.853h-2.326
		v-27.841h2.593v12.128c0.891-1.348,1.958-2.435,3.205-3.261c1.244-0.826,2.693-1.24,4.347-1.24c1.398,0,2.65,0.293,3.757,0.878
		c1.106,0.585,2.047,1.366,2.823,2.345c0.775,0.979,1.373,2.086,1.792,3.318c0.419,1.234,0.63,2.498,0.63,3.795
		c0,1.398-0.242,2.722-0.725,3.967c-0.484,1.246-1.145,2.333-1.983,3.261c-0.84,0.929-1.838,1.665-2.994,2.213
		C444.964,187.72,443.726,187.994,442.403,187.994z M441.793,185.706c1.093,0,2.091-0.223,2.993-0.668
		c0.902-0.444,1.679-1.042,2.327-1.793c0.648-0.749,1.156-1.602,1.525-2.555c0.369-0.953,0.554-1.938,0.554-2.956
		c0-1.042-0.172-2.046-0.516-3.013c-0.343-0.967-0.826-1.825-1.449-2.575c-0.623-0.749-1.373-1.347-2.25-1.792
		c-0.878-0.445-1.838-0.667-2.88-0.667c-0.788,0-1.525,0.133-2.212,0.399c-0.687,0.268-1.322,0.63-1.907,1.088
		c-0.586,0.457-1.105,0.985-1.563,1.583c-0.458,0.598-0.84,1.227-1.145,1.888v6.179c0.102,0.686,0.375,1.328,0.821,1.926
		c0.444,0.598,0.978,1.112,1.601,1.544c0.623,0.434,1.297,0.776,2.022,1.03C440.439,185.578,441.132,185.706,441.793,185.706z"/>
	<path fill="#FFFFFF" d="M468.834,187.994c-0.941,0-1.813-0.159-2.613-0.477c-0.801-0.317-1.501-0.756-2.098-1.316
		c-0.598-0.559-1.061-1.214-1.392-1.964c-0.331-0.75-0.496-1.558-0.496-2.422c0-0.864,0.204-1.665,0.609-2.402
		c0.407-0.737,0.979-1.373,1.717-1.907c0.737-0.534,1.615-0.947,2.632-1.24c1.017-0.292,2.136-0.438,3.356-0.438
		c1.017,0,2.046,0.089,3.09,0.267c1.042,0.178,1.97,0.433,2.784,0.763v-1.793c0-1.754-0.496-3.146-1.488-4.176
		c-0.991-1.029-2.364-1.545-4.119-1.545c-1.017,0-2.059,0.204-3.127,0.61c-1.068,0.406-2.148,0.991-3.242,1.755l-0.916-1.717
		c2.568-1.729,5.061-2.594,7.477-2.594c2.491,0,4.449,0.7,5.873,2.098c1.424,1.398,2.136,3.331,2.136,5.798v8.963
		c0,0.712,0.318,1.067,0.953,1.067v2.288c-0.432,0.077-0.762,0.114-0.991,0.114c-0.661,0-1.177-0.164-1.544-0.495
		c-0.369-0.33-0.566-0.788-0.592-1.373l-0.075-1.564c-0.917,1.196-2.067,2.111-3.452,2.746
		C471.929,187.676,470.436,187.994,468.834,187.994z M469.444,186.01c1.348,0,2.588-0.254,3.719-0.763
		c1.131-0.509,1.99-1.182,2.575-2.021c0.229-0.229,0.4-0.477,0.514-0.743c0.115-0.267,0.173-0.516,0.173-0.744v-3.242
		c-0.865-0.33-1.762-0.585-2.689-0.763c-0.928-0.178-1.876-0.267-2.841-0.267c-1.831,0-3.318,0.381-4.463,1.145
		c-1.145,0.762-1.716,1.767-1.716,3.013c0,0.609,0.12,1.182,0.362,1.716c0.24,0.534,0.571,0.999,0.991,1.393
		c0.42,0.395,0.922,0.706,1.507,0.934C468.16,185.896,468.783,186.01,469.444,186.01z"/>
	<path fill="#FFFFFF" d="M492.366,159.771h2.594v23.341c0,0.737,0.203,1.316,0.611,1.735c0.405,0.42,0.977,0.629,1.716,0.629
		c0.279,0,0.61-0.037,0.991-0.114c0.382-0.076,0.737-0.178,1.068-0.305l0.457,2.098c-0.483,0.204-1.073,0.368-1.773,0.496
		c-0.699,0.126-1.304,0.19-1.811,0.19c-1.195,0-2.136-0.337-2.822-1.011c-0.686-0.673-1.03-1.621-1.03-2.842V159.771z"/>
	<path fill="#FFFFFF" d="M539.811,187.612h-2.593v-11.098c0-2.314-0.369-4.018-1.106-5.111c-0.737-1.093-1.83-1.641-3.279-1.641
		c-0.763,0-1.481,0.141-2.155,0.42c-0.674,0.28-1.296,0.674-1.869,1.183c-0.572,0.509-1.074,1.112-1.506,1.811
		c-0.433,0.699-0.764,1.469-0.991,2.308v12.128h-2.595v-11.098c0-2.365-0.356-4.081-1.067-5.149
		c-0.712-1.068-1.806-1.602-3.28-1.602c-1.5,0-2.835,0.522-4.004,1.564c-1.171,1.043-2.009,2.416-2.518,4.119v12.166h-2.593v-19.87
		h2.364v4.5c0.813-1.525,1.881-2.714,3.203-3.566c1.322-0.852,2.784-1.278,4.386-1.278c1.679,0,3.02,0.471,4.024,1.411
		c1.004,0.941,1.621,2.174,1.85,3.699c1.856-3.406,4.411-5.11,7.666-5.11c1.119,0,2.065,0.204,2.842,0.61
		c0.775,0.407,1.397,0.986,1.868,1.735c0.471,0.751,0.813,1.653,1.029,2.708c0.217,1.056,0.324,2.23,0.324,3.528V187.612z"/>
	<path fill="#FFFFFF" d="M561.513,187.994c-1.449,0-2.778-0.273-3.985-0.819c-1.208-0.548-2.258-1.298-3.146-2.251
		c-0.89-0.954-1.584-2.053-2.078-3.299c-0.497-1.246-0.744-2.581-0.744-4.005c0-1.397,0.247-2.714,0.744-3.948
		c0.494-1.232,1.181-2.313,2.06-3.241c0.876-0.928,1.925-1.665,3.146-2.212c1.221-0.547,2.542-0.82,3.967-0.82
		c1.45,0,2.777,0.273,3.985,0.82c1.207,0.547,2.244,1.291,3.108,2.23c0.864,0.941,1.538,2.021,2.021,3.242s0.725,2.518,0.725,3.891
		c0,0.204,0,0.407,0,0.61c0,0.204-0.013,0.343-0.038,0.42h-17.01c0.076,1.067,0.324,2.054,0.744,2.955
		c0.419,0.903,0.959,1.685,1.62,2.346c0.661,0.662,1.417,1.177,2.269,1.545c0.851,0.369,1.761,0.553,2.727,0.553
		c0.636,0,1.271-0.089,1.907-0.267c0.635-0.178,1.221-0.42,1.755-0.725c0.533-0.306,1.016-0.68,1.448-1.125
		c0.433-0.445,0.763-0.935,0.993-1.469l2.249,0.61c-0.305,0.738-0.737,1.405-1.296,2.002c-0.559,0.598-1.208,1.12-1.946,1.564
		c-0.737,0.445-1.551,0.788-2.439,1.029C563.408,187.872,562.479,187.994,561.513,187.994z M568.836,176.627
		c-0.076-1.067-0.324-2.04-0.743-2.917c-0.42-0.878-0.954-1.634-1.604-2.27c-0.648-0.636-1.398-1.131-2.249-1.487
		c-0.853-0.355-1.762-0.534-2.728-0.534c-0.967,0-1.882,0.179-2.746,0.534c-0.865,0.356-1.621,0.852-2.269,1.487
		c-0.648,0.636-1.17,1.398-1.564,2.288c-0.393,0.891-0.629,1.856-0.706,2.898H568.836z"/>
	<path fill="#FFFFFF" d="M591.109,187.994c-1.373,0-2.644-0.286-3.813-0.858c-1.17-0.572-2.174-1.328-3.014-2.269
		c-0.838-0.94-1.493-2.027-1.964-3.261c-0.47-1.232-0.705-2.522-0.705-3.871c0-1.398,0.229-2.727,0.687-3.985
		c0.458-1.259,1.087-2.358,1.888-3.3c0.801-0.939,1.755-1.684,2.86-2.23c1.107-0.547,2.321-0.82,3.643-0.82
		c1.679,0,3.165,0.438,4.463,1.315c1.297,0.878,2.313,1.939,3.051,3.186v-12.128h2.594v24.485c0,0.712,0.305,1.067,0.915,1.067
		v2.288c-0.381,0.077-0.688,0.114-0.915,0.114c-0.61,0-1.145-0.195-1.602-0.591c-0.458-0.393-0.687-0.871-0.687-1.43v-1.946
		c-0.789,1.298-1.857,2.327-3.204,3.09C593.956,187.612,592.559,187.994,591.109,187.994z M591.682,185.706
		c0.635,0,1.315-0.128,2.041-0.382c0.724-0.254,1.404-0.604,2.04-1.049c0.634-0.444,1.176-0.966,1.62-1.564
		c0.444-0.598,0.718-1.239,0.82-1.926v-6.141c-0.255-0.687-0.623-1.329-1.106-1.927c-0.483-0.597-1.037-1.124-1.659-1.583
		c-0.624-0.457-1.291-0.813-2.003-1.067c-0.712-0.254-1.41-0.381-2.097-0.381c-1.068,0-2.035,0.229-2.899,0.687
		c-0.864,0.457-1.608,1.061-2.23,1.811c-0.624,0.75-1.102,1.607-1.431,2.574c-0.331,0.967-0.497,1.958-0.497,2.975
		c0,1.067,0.192,2.085,0.573,3.052c0.381,0.966,0.902,1.811,1.564,2.536c0.66,0.725,1.442,1.303,2.345,1.735
		C589.667,185.49,590.638,185.706,591.682,185.706z"/>
	<path fill="#FFFFFF" d="M614.298,163.583v-3.813h2.594v3.813H614.298z M614.298,187.612v-19.87h2.594v19.87H614.298z"/>
	<path fill="#FFFFFF" d="M635.237,187.994c-0.941,0-1.813-0.159-2.612-0.477c-0.802-0.317-1.501-0.756-2.098-1.316
		c-0.598-0.559-1.063-1.214-1.393-1.964c-0.331-0.75-0.496-1.558-0.496-2.422c0-0.864,0.203-1.665,0.61-2.402
		c0.407-0.737,0.979-1.373,1.717-1.907c0.736-0.534,1.614-0.947,2.632-1.24c1.016-0.292,2.135-0.438,3.355-0.438
		c1.017,0,2.047,0.089,3.09,0.267c1.042,0.178,1.971,0.433,2.784,0.763v-1.793c0-1.754-0.497-3.146-1.488-4.176
		c-0.991-1.029-2.364-1.545-4.119-1.545c-1.017,0-2.06,0.204-3.127,0.61c-1.067,0.406-2.149,0.991-3.241,1.755l-0.916-1.717
		c2.567-1.729,5.06-2.594,7.477-2.594c2.491,0,4.448,0.7,5.873,2.098c1.424,1.398,2.135,3.331,2.135,5.798v8.963
		c0,0.712,0.319,1.067,0.954,1.067v2.288c-0.433,0.077-0.763,0.114-0.991,0.114c-0.661,0-1.178-0.164-1.545-0.495
		c-0.369-0.33-0.567-0.788-0.591-1.373l-0.076-1.564c-0.916,1.196-2.067,2.111-3.452,2.746
		C638.331,187.676,636.838,187.994,635.237,187.994z M635.846,186.01c1.348,0,2.588-0.254,3.72-0.763
		c1.131-0.509,1.988-1.182,2.574-2.021c0.229-0.229,0.4-0.477,0.515-0.743c0.114-0.267,0.172-0.516,0.172-0.744v-3.242
		c-0.864-0.33-1.762-0.585-2.689-0.763c-0.929-0.178-1.876-0.267-2.842-0.267c-1.831,0-3.318,0.381-4.463,1.145
		c-1.143,0.762-1.716,1.767-1.716,3.013c0,0.609,0.12,1.182,0.362,1.716c0.241,0.534,0.571,0.999,0.991,1.393
		c0.42,0.395,0.922,0.706,1.507,0.934C634.562,185.896,635.186,186.01,635.846,186.01z"/>
	<path fill="#FFFFFF" d="M658.274,187.612v-3.737h2.249v3.737H658.274z"/>
	<path fill="#FFFFFF" d="M703.049,187.612h-2.594v-11.098c0-2.314-0.368-4.018-1.106-5.111c-0.739-1.093-1.831-1.641-3.281-1.641
		c-0.762,0-1.481,0.141-2.154,0.42c-0.674,0.28-1.297,0.674-1.869,1.183c-0.571,0.509-1.075,1.112-1.506,1.811
		c-0.433,0.699-0.764,1.469-0.992,2.308v12.128h-2.593v-11.098c0-2.365-0.357-4.081-1.068-5.149
		c-0.713-1.068-1.805-1.602-3.28-1.602c-1.501,0-2.836,0.522-4.005,1.564c-1.169,1.043-2.009,2.416-2.518,4.119v12.166h-2.593
		v-19.87h2.364v4.5c0.814-1.525,1.882-2.714,3.204-3.566c1.321-0.852,2.784-1.278,4.386-1.278c1.678,0,3.02,0.471,4.023,1.411
		c1.006,0.941,1.621,2.174,1.851,3.699c1.855-3.406,4.411-5.11,7.666-5.11c1.118,0,2.065,0.204,2.841,0.61
		c0.775,0.407,1.398,0.986,1.87,1.735c0.47,0.751,0.813,1.653,1.029,2.708c0.216,1.056,0.324,2.23,0.324,3.528V187.612z"/>
	<path fill="#FFFFFF" d="M716.664,167.742l5.951,7.78l0.305,0.572l0.305-0.572l5.948-7.78h2.785l-7.59,9.992l7.59,9.878h-2.785
		l-5.948-7.742l-0.305-0.534l-0.305,0.534l-5.951,7.742h-2.784l7.59-9.878l-7.59-9.992H716.664z"/>
</g>
</svg>
