<!-- Generator: Adobe Illustrator 21.0.2, SVG Export Plug-In  -->
<svg version="1.1"
	 xmlns="http://www.w3.org/2000/svg" xmlns:xlink="http://www.w3.org/1999/xlink" xmlns:a="http://ns.adobe.com/AdobeSVGViewerExtensions/3.0/"
	 x="0px" y="0px" width="828.1px" height="198.3px" viewBox="0 0 828.1 198.3" style="enable-background:new 0 0 828.1 198.3;"
	 xml:space="preserve">
<style type="text/css">
	.st0{fill:#072A42;}
</style>
<defs>
</defs>
<path class="st0" d="M526,58.9c-1.5-1.6-3.4-2.4-5.7-2.4h-8.8l-7.4,85.8h17.1l6.7-77.6C528.2,62.4,527.5,60.4,526,58.9 M486.2,115.1
	c-0.4,4.7-2,8.3-4.9,11c-2.8,2.7-6.5,4-11.1,4c-2.8,0-4.8-0.7-6.2-2c-1.3-1.5-1.9-3.5-1.7-6c0.2-1.8,0.9-3.7,2.2-5.5
	c1.4-1.3,3.6-2.4,6.6-3.2l5.7-1.3c4.2-1,7.4-2.1,9.8-3.2L486.2,115.1z M498.1,79.2c-4.3-3.2-11-4.7-20.2-4.7
	c-8.2,0-14.6,1.9-19.3,5.7c-4.2,3.3-6.9,7.6-7.9,12.7H467c1-1.8,2.4-3.1,4.2-3.7c1.8-0.7,3.9-1,6.2-1c2.1,0,4.4,0.4,6.9,1.1
	c2.5,0.7,3.6,2.4,3.4,4.9c-0.3,3.3-4.1,5.5-11.3,6.5c-1.5,0.2-2.8,0.4-4,0.6c-1.2,0.3-2.2,0.4-3,0.4c-6.3,1-11.6,3-15.8,6
	c-4.3,3-6.7,8-7.3,15c-0.6,7.5,1.1,12.9,5.2,16.1c4.1,3.3,9.1,4.9,15,4.9c2.9,0,6.3-0.2,10.2-0.6c3.9-0.4,7.6-1.5,11.2-3.4
	c3.4-1.7,6.5-4.4,9.1-8.1c2.7-3.7,4.3-8.9,4.9-15.6l2-22.7C504.5,87.2,502.5,82.5,498.1,79.2 M427.9,108.6c-0.6,6.7-2.2,11.7-5,15.2
	c-2.8,3.5-6.4,5.2-11,5.2c-4.4,0-7.7-1.8-9.8-5.2c-2-3.2-2.7-8.2-2.1-15.2c0.5-6,2.1-10.7,4.9-14.2c2.7-3.3,6.4-5,11-5
	c4.2,0,7.4,1.8,9.6,5.2C427.6,98,428.5,102.6,427.9,108.6 M421.6,74.4c-4.2,0-7.9,0.8-11,2.5c-3.6,2-6.4,4.6-8.5,7.7l1.7-20
	c0.2-2.3-0.4-4.3-1.9-6c-1.5-1.7-3.4-2.5-5.7-2.5h-8.3l-4.9,57.1c-1,11.8,1.6,19.8,8,23.9c6.3,4.2,13.4,6.2,21.2,6.2
	c4.1,0,8.3-0.7,12.5-2.1c4.3-1.4,7.8-3.7,10.5-6.9c5.5-6.5,8.6-14.9,9.5-25.2c0.9-10.3-0.8-18.7-5.2-25.2
	C435.3,77.7,429.3,74.4,421.6,74.4 M362.8,108.9c-0.7,6.7-2.2,11.5-4.4,14.5c-2.2,3-4.6,4.9-7.2,5.6c-2.6,0.7-5.1,0.7-7.4-0.2
	c-2.4-0.9-4-2-4.9-3.4c-2.2-3-3.1-8.3-2.8-15.8c0.3-7.6,2.4-13.3,6.1-17.1c1.2-1.2,3.1-2.1,5.6-2.9c2.5-0.7,5-0.7,7.3,0.1
	c2.4,0.8,4.4,2.7,6,5.7C362.8,98.4,363.3,102.9,362.8,108.9 M364.4,76.4c-5.2-2-11.2-2.5-18-1.6c-6.8,0.9-12.5,3.9-17.2,8.9
	c-2.9,3-5.1,6.7-6.7,11.2c-1.6,4.5-2.6,9-3,13.5c-0.5,5.5-0.2,10.8,0.8,15.8c1,5.1,3.1,9.1,6.3,12.1c3,3,7.2,5.1,12.5,6.4
	c5.4,1.2,10.8,1.1,16.3-0.4c6.1-1.3,11.4-4.7,15.8-10.2c2-2.7,3.8-5.9,5.2-9.7c1.5-3.8,2.4-8.4,2.9-13.7c0.6-7.3-0.2-13.7-2.5-19.2
	C374.5,83.3,370.3,78.9,364.4,76.4 M318.6,58.9c-1.5-1.6-3.4-2.4-5.7-2.4h-8.8l-7.4,85.8h17.1l6.7-77.6
	C320.7,62.4,320.1,60.4,318.6,58.9 M242.6,77.2c4.5-5.2,10.3-7.7,17.3-7.7c5.4,0,9.6,1.2,12.7,3.5c2,1.7,3.5,3.5,4.4,5.5
	c1.4,3.2,3.8,4.7,7.2,4.7h11.7c-0.5-8.8-3.9-16-10.1-21.5c-6.4-5.2-14.8-7.7-25.3-7.7c-12.1,0-22.1,4.2-30.2,12.5
	c-7.7,8-12.1,18.9-13.3,32.7c-1.2,14,1.4,24.9,7.9,32.9c6.3,8.2,15.5,12.2,27.6,12.2c5.1,0,9.8-0.9,14.2-2.8c4.2-2,8-5.1,11.3-9.5
	l0.5,3.3c0.7,4.7,3.4,7,8,7h4.6l4-46.7h-35l-0.5,5.7c-0.2,2.5,0.5,4.6,2,6.4c1.6,1.7,3.6,2.6,6,2.6h10.3c-1.5,5.8-4.2,10.4-8,13.7
	c-3.9,3.2-8.6,4.7-14.1,4.7c-7.5,0-13.1-2.6-16.7-7.7c-3.8-5.3-5.3-12.6-4.5-22C235.4,90,238.1,82.7,242.6,77.2"/>
<path class="st0" d="M810.2,115.1c-0.4,4.7-2,8.3-4.9,11c-2.8,2.7-6.5,4-11.1,4c-2.8,0-4.8-0.7-6.2-2c-1.3-1.5-1.9-3.5-1.7-6
	c0.2-1.8,0.9-3.7,2.2-5.5c1.4-1.3,3.6-2.4,6.6-3.2l5.7-1.3c4.2-1,7.4-2.1,9.8-3.2L810.2,115.1z M822.1,79.2
	c-4.3-3.2-11-4.7-20.1-4.7c-8.2,0-14.6,1.9-19.3,5.7c-4.2,3.3-6.9,7.6-7.9,12.7h16.4c1-1.8,2.4-3.1,4.2-3.7c1.9-0.7,3.9-1,6.2-1
	c2.1,0,4.4,0.4,6.9,1.1c2.5,0.7,3.6,2.4,3.4,4.9c-0.3,3.3-4.1,5.5-11.3,6.5c-1.5,0.2-2.8,0.4-4,0.6c-1.2,0.3-2.2,0.4-3,0.4
	c-6.3,1-11.6,3-15.8,6c-4.3,3-6.7,8-7.3,15c-0.6,7.5,1.1,12.9,5.2,16.1c4.1,3.3,9.1,4.9,15,4.9c2.9,0,6.3-0.2,10.2-0.6
	c3.9-0.4,7.6-1.5,11.2-3.4c3.4-1.7,6.4-4.4,9.1-8.1c2.7-3.7,4.3-8.9,4.9-15.6l1.9-22.7C828.5,87.2,826.6,82.5,822.1,79.2
	 M769.3,78.4c-1.5-1.7-3.4-2.5-5.7-2.5h-8.8l-5.7,66.4h17.1l5-57.9C771.4,82.1,770.8,80.1,769.3,78.4 M772.9,65
	c0.2-2.3-0.4-4.3-1.9-6c-1.5-1.7-3.4-2.5-5.7-2.5h-8.8l-1.2,13.7h17.1L772.9,65z M729.7,108.6c-0.6,6.7-2.2,11.7-4.7,15.2
	c-2.8,3.5-6.3,5.2-10.7,5.2c-4.6,0-7.9-1.8-10.1-5.2c-2.2-3.5-2.9-8.6-2.4-15.2c0.5-6,2.1-10.6,4.9-14c2.8-3.5,6.2-5.2,10.5-5.2
	c4.4,0,7.8,1.7,10.1,5C729.4,97.9,730.3,102.6,729.7,108.6 M748.2,58.9c-1.5-1.7-3.4-2.6-5.7-2.6h-8.3l-2.4,28.4
	c-1.7-3.2-4.1-5.7-7.2-7.7c-3-1.7-6.5-2.5-10.6-2.5c-7.7,0-14.2,3.2-19.7,9.7c-5.3,6.3-8.4,14.7-9.3,25.2c-0.9,10.6,0.7,19,4.9,25.2
	c2.2,3.2,5.2,5.5,9.2,6.9c4,1.4,8.1,2.1,12.3,2.1c7.8,0,15.3-2.1,22.3-6.2c7-4.2,11.1-12.1,12.1-23.9l4.2-48.7
	C750.3,62.6,749.7,60.6,748.2,58.9 M640.7,102.4c0.5-4.3,2-7.7,4.5-10c2.5-2.3,5.5-3.5,9.1-3.5c3.9,0,6.8,1.2,8.8,3.5
	c1.8,2.2,2.6,5.5,2.6,10H640.7z M655.1,74.4c-9.3,0-16.8,3.1-22.6,9.2c-5.6,6-8.8,14.3-9.7,25c-1,11.1,0.9,19.7,5.6,25.7
	c4.7,6.2,11.7,9.2,21,9.2c7.7,0,14.2-1.9,19.6-5.7c5.4-3.7,9.3-9,11.7-16h-12.2c-2,0-3.5,0.4-4.6,1.2c-1.1,0.8-1.8,1.5-2,2
	c-0.5,0.5-1,1-1.5,1.4c-0.4,0.4-0.9,0.7-1.4,0.9c-2.1,1.2-4.5,1.8-7.2,1.8c-4.2,0-7.3-1.3-9.2-4c-2.1-2.5-3-6.3-2.7-11.5h42.3
	c0.2-0.3,0.3-0.9,0.4-1.7c0-0.2,0-0.5,0.1-1c0-0.5,0.1-1.1,0.1-1.7c0.9-11-0.9-19.5-5.6-25.7C672.2,77.4,664.8,74.4,655.1,74.4
	 M597.6,56.2l-22.3,65.6l-11-65.6h-16.9c-2.5,0.2-4.6,1.1-6.5,2.9c-1.9,1.8-2.9,3.9-3.1,6.4l-6.6,76.8h16.2l6-69.4l11.4,69.4h17.9
	L605.7,73l-5.9,69.4h16.2l7.4-86.1H597.6"/>
<g>
	<path class="st0" d="M96.5,0C61.6,0,31,18.7,13.8,46.9c6.1-7.4,15.7-17.2,32.3-25.7c0.1-3.7,3.5-7.1,8.1-7.9
		c5.1-0.8,9.8,1.9,10.4,6.1c0.7,4.2-2.9,8.3-8,9.2c-2.4,0.4-4.7,0-6.6-1C37.9,33.9,9.7,50.8,2.4,73.8c-0.7,2.9-1.4,5.8-1.8,8.7
		c11.5-15.7,41.3-41.7,89.7-59.2c0.8-4.7,4.2-8.5,8.7-9.2c5.9-1,11.5,3.6,12.5,10.2c1,6.6-2.9,12.7-8.7,13.7
		c-2.7,0.4-5.4-0.3-7.6-1.9C86.8,39.7,54.3,54.2,34,69.4C10.8,86.8,1.6,96.1,0,111.8c0.6,5,1.6,9.9,3,14.6
		c9.3-17.5,28.1-32.7,53.6-47.8c21.7-12.9,58.1-28.5,77-34.2c1.8-3.5,5-6.1,9-6.8c6.9-1.1,13.5,4,14.7,11.4
		c1.2,7.5-3.5,14.4-10.4,15.6c-3.5,0.6-6.9-0.5-9.6-2.6c-9.5,3.7-57.9,23-80.3,37.9c-24.9,16.6-32.6,25.4-45,40.5
		c0,0-2.8,1.9,0.9,9.1c2.5,4.2,5.2,8.3,8.3,12.1c5-11,21-24.6,41.5-36.3c32.5-18.6,54.5-29.9,62.2-32.6c1.5-3.4,4.4-5.9,8-6.5
		c6-1,11.8,3.7,12.9,10.5c1.1,6.8-3,13.1-9,14.1c-2.3,0.4-4.5-0.1-6.5-1.1c-8.9,4-42,19-58.1,28.3c-18.7,10.7-38.6,27.5-40.7,30.8
		c-1.6,2.5,0.9,4.3,3.4,6.8c0,0,0,0-0.1,0c6.1,5.1,12.8,9.4,19.9,12.9c0-0.4,0.1-0.8,0.2-1.3c1.7-5.6,21-26.6,53.7-39.4
		c0.6-4.7,4-8.6,8.7-9.4c5.7-0.9,11.1,3.1,12.1,9.1c0.9,5.9-2.9,11.5-8.7,12.5c-2.6,0.4-5.1-0.2-7.2-1.5
		c-11.6,5.9-33.6,18.3-48.7,34.1c0,0-0.2,0-0.4,0c10,3.6,20.8,5.5,32.1,5.5c53.7,0,97.3-44.4,97.3-99.1C193.7,44.4,150.2,0,96.5,0z"
		/>
</g>
</svg>
