<!-- Generator: Adobe Illustrator 21.0.2, SVG Export Plug-In  -->
<svg version="1.1"
	 xmlns="http://www.w3.org/2000/svg" xmlns:xlink="http://www.w3.org/1999/xlink" xmlns:a="http://ns.adobe.com/AdobeSVGViewerExtensions/3.0/"
	 x="0px" y="0px" width="86px" height="50.5px" viewBox="0 0 86 50.5" style="enable-background:new 0 0 86 50.5;"
	 xml:space="preserve">
<style type="text/css">
	.st0{fill:none;stroke:#FFFFFF;stroke-miterlimit:10;}
	.st1{fill:none;stroke:#FFFFFF;stroke-linecap:square;stroke-miterlimit:10;}
</style>
<defs>
</defs>
<g>
	<polyline class="st0" points="37.5,38 37.5,47 47,47 	"/>
	<polyline class="st0" points="37.5,38 37.5,47 25,47 	"/>
	<g>
		<rect x="47.5" y="30" class="st0" width="38" height="20"/>
		<circle class="st0" cx="57.5" cy="40" r="7"/>
		<polyline class="st0" points="82.3,30 67.5,21 67.5,15 		"/>
		<rect x="68.5" y="33" class="st0" width="14" height="3"/>
		<line class="st1" x1="82.5" y1="38" x2="71" y2="38"/>
		<line class="st1" x1="82.5" y1="40" x2="75.5" y2="40"/>
	</g>
	<g>
		<rect x="47.5" y="30" class="st0" width="38" height="20"/>
		<circle class="st0" cx="57.5" cy="40" r="7"/>
		<polyline class="st0" points="82.3,30 67.5,21 67.5,15 		"/>
		<rect x="68.5" y="33" class="st0" width="14" height="3"/>
		<line class="st1" x1="82.5" y1="38" x2="71" y2="38"/>
		<line class="st1" x1="82.5" y1="40" x2="75.5" y2="40"/>
	</g>
	<polygon class="st0" points="47.5,30 75.5,30 75.5,0.5 0.5,0.5 0.5,38 47.5,38 	"/>
</g>
</svg>
