<!-- Generator: Adobe Illustrator 17.0.0, SVG Export Plug-In  -->
<svg version="1.1"
	 xmlns="http://www.w3.org/2000/svg" xmlns:xlink="http://www.w3.org/1999/xlink" xmlns:a="http://ns.adobe.com/AdobeSVGViewerExtensions/3.0/"
	 x="0px" y="0px" width="328.039px" height="328.004px" viewBox="0 0 328.039 328.004" enable-background="new 0 0 328.039 328.004"
	 xml:space="preserve">
<defs>
</defs>
<g transform="translate(0,-952.36218)">
	<g transform="translate(8.9950798,961.32626)">
		<path fill="#231F20" d="M127.068-8.964C52.233-8.964-8.995,52.123-8.995,126.957S52.233,263.02,127.068,263.02
			c28.772,0,55.417-9.213,77.386-24.52l73.559,73.417c9.354,9.496,24.661,9.496,34.016,0c9.354-9.354,9.354-24.52,0-33.874
			l-73.559-73.559c15.449-22.11,24.52-48.756,24.52-77.528C262.989,52.123,201.761-8.964,127.068-8.964z M127.068,38.941
			c48.756,0,87.874,39.118,87.874,88.016s-39.118,88.016-87.874,88.016c-48.898,0-88.016-39.118-88.016-88.016
			S78.17,38.941,127.068,38.941z"/>
	</g>
</g>
</svg>
