<!-- Generator: Adobe Illustrator 21.0.2, SVG Export Plug-In  -->
<svg version="1.1"
	 xmlns="http://www.w3.org/2000/svg" xmlns:xlink="http://www.w3.org/1999/xlink" xmlns:a="http://ns.adobe.com/AdobeSVGViewerExtensions/3.0/"
	 x="0px" y="0px" width="24px" height="24px" viewBox="0 0 24 24" style="enable-background:new 0 0 24 24;" xml:space="preserve">
<style type="text/css">
	.st0{fill:#1B2D41;}
	.st1{fill:#FFFFFF;}
</style>
<defs>
</defs>
<g id="XMLID_1_">
	<g id="XMLID_7_">
		<circle id="XMLID_8_" class="st0" cx="12" cy="12" r="12"/>
	</g>
	<g id="XMLID_2_" transform="translate(0,-952.36218)">
		<path id="XMLID_3_" class="st1" d="M15.3,958.8c-0.6,0-1.2,0.2-1.7,0.7l-1.4,1.4c-0.5,0.5-0.7,1.1-0.7,1.7c0,0.2,0.3,0.4,0.5,0.4
			c0.2,0,0.5-0.2,0.5-0.4c0,0,0,0,0,0c0-0.4,0-0.8,0.4-1.1l1.4-1.4c0.6-0.6,1.6-0.6,2.2,0c0.6,0.6,0.6,1.6,0,2.2l-1.4,1.4
			c-0.3,0.3-0.7,0.5-1.1,0.5c-0.2,0-0.4,0-0.4,0.3c0,0.2,0.2,0.3,0.4,0.3c0,0,0,0,0,0c0.6,0,1.3-0.1,1.7-0.6l1.4-1.3
			c0.9-0.9,0.9-2.5,0-3.4C16.5,959,15.9,958.8,15.3,958.8z M13.7,962.4c-0.1,0-0.2,0.1-0.3,0.1L10,966c-0.2,0.2-0.2,0.4,0,0.6
			c0.2,0.2,0.4,0.2,0.6,0c0,0,0,0,0,0l3.4-3.4c0.2-0.2,0.2-0.4,0-0.6C13.9,962.4,13.8,962.4,13.7,962.4z M10.1,963.9
			c-0.6,0-1.3,0.3-1.7,0.8L7,966.1C6,967,6,968.6,7,969.6c0.9,0.9,2.5,1,3.4,0l1.4-1.4c0.5-0.5,0.7-1.1,0.7-1.7
			c0-0.2-0.3-0.4-0.5-0.4c-0.2,0-0.5,0.2-0.5,0.4c0,0,0,0,0,0c0,0.4,0,0.8-0.4,1.1L9.8,969c-0.6,0.6-1.6,0.6-2.2,0
			c-0.6-0.6-0.6-1.6,0-2.2l1.4-1.4c0.3-0.3,0.7-0.5,1.1-0.5c0.2,0,0.4-0.3,0.4-0.5C10.6,964.1,10.4,963.9,10.1,963.9
			C10.1,963.9,10.1,963.9,10.1,963.9z"/>
	</g>
</g>
</svg>
