<!-- Generator: Adobe Illustrator 21.0.2, SVG Export Plug-In  -->
<svg version="1.1"
	 xmlns="http://www.w3.org/2000/svg" xmlns:xlink="http://www.w3.org/1999/xlink" xmlns:a="http://ns.adobe.com/AdobeSVGViewerExtensions/3.0/"
	 x="0px" y="0px" width="96px" height="96px" viewBox="0 0 96 96" style="enable-background:new 0 0 96 96;" xml:space="preserve">
<style type="text/css">
	.st0{fill:#4CAF50;}
</style>
<defs>
</defs>
<g>
	<path class="st0" d="M93.5,24.1C91.4,13,82.9,4.4,71.8,2.3C63.8,0.8,55.7,0,48,0C40,0,32,0.8,24,2.3C12.9,4.4,4.4,12.9,2.2,24
		c-3,15.9-3,32,0,47.9c2.1,11,10.6,19.5,21.7,21.7c7.9,1.6,16,2.4,24,2.4c7.9,0,15.7-0.7,24-2.3c11-2.1,19.5-10.6,21.6-21.7
		C96.8,56.1,96.8,40,93.5,24.1z M74.6,31.8L40,66.3c-0.3,0.3-0.7,0.4-1,0.4l0,0c-0.4,0-0.8-0.2-1-0.4L21.2,49.5
		c-0.6-0.6-0.6-1.5,0-2.1c0.6-0.6,1.5-0.6,2.1,0L39,63.1l33.5-33.5c0.6-0.6,1.5-0.6,2.1,0C75.2,30.3,75.2,31.2,74.6,31.8z"/>
</g>
</svg>
