<!-- Generator: Adobe Illustrator 21.0.2, SVG Export Plug-In  -->
<svg version="1.1"
	 xmlns="http://www.w3.org/2000/svg" xmlns:xlink="http://www.w3.org/1999/xlink" xmlns:a="http://ns.adobe.com/AdobeSVGViewerExtensions/3.0/"
	 x="0px" y="0px" width="24px" height="24px" viewBox="0 0 24 24" style="enable-background:new 0 0 24 24;" xml:space="preserve">
<style type="text/css">
	.st0{fill:#43C935;}
	.st1{fill:#FFFFFF;}
</style>
<defs>
</defs>
<path class="st0" d="M24,12c0,6.6-5.4,12-12,12C5.4,24,0,18.6,0,12C0,5.4,5.4,0,12,0C18.6,0,24,5.4,24,12"/>
<path class="st1" d="M19.1,11.8c0,3.8-3.1,6.9-7,6.9c-1.2,0-2.4-0.3-3.4-0.9l-3.9,1.2l1.3-3.7c-0.6-1-1-2.3-1-3.6
	c0-3.8,3.1-6.9,7-6.9C16,4.9,19.1,8,19.1,11.8 M12.1,6c-3.2,0-5.8,2.6-5.8,5.8c0,1.3,0.4,2.4,1.1,3.4l-0.7,2.2l2.2-0.7
	c0.9,0.6,2,1,3.2,1c3.2,0,5.8-2.6,5.8-5.8S15.4,6,12.1,6 M15.6,13.4c0-0.1-0.2-0.1-0.3-0.2c-0.2-0.1-1-0.5-1.2-0.6
	c-0.2-0.1-0.3-0.1-0.4,0.1c-0.1,0.2-0.4,0.6-0.5,0.7c-0.1,0.1-0.2,0.1-0.4,0c-0.2-0.1-0.7-0.3-1.4-0.8c-0.5-0.4-0.8-1-0.9-1.2
	c-0.1-0.2,0-0.3,0.1-0.3c0.1-0.1,0.2-0.2,0.3-0.3c0.1-0.1,0.1-0.2,0.2-0.3c0.1-0.1,0-0.2,0-0.3c0-0.1-0.4-0.9-0.5-1.3
	c-0.1-0.3-0.3-0.3-0.4-0.3s-0.2,0-0.3,0c-0.1,0-0.3,0-0.5,0.2C9.2,9,8.7,9.5,8.7,10.3c0,0.8,0.6,1.6,0.7,1.7
	c0.1,0.1,1.2,1.9,2.9,2.6c1.7,0.7,1.7,0.5,2,0.4c0.3,0,1-0.4,1.2-0.8C15.7,13.8,15.7,13.5,15.6,13.4"/>
</svg>
