<!-- Generator: Adobe Illustrator 21.0.2, SVG Export Plug-In  -->
<svg version="1.1"
	 xmlns="http://www.w3.org/2000/svg" xmlns:xlink="http://www.w3.org/1999/xlink" xmlns:a="http://ns.adobe.com/AdobeSVGViewerExtensions/3.0/"
	 x="0px" y="0px" width="70.1px" height="76.7px" viewBox="0 0 70.1 76.7" style="enable-background:new 0 0 70.1 76.7;"
	 xml:space="preserve">
<style type="text/css">
	.st0{fill:#FFFFFF;}
</style>
<defs>
</defs>
<path class="st0" d="M70.1,25.7c0-1.2-0.1-2.4-0.5-3.5c-1.1-3.3-3-6.1-6.1-7.9C56.3,10.1,49,6,41.8,1.8c-2-1.1-4-1.7-6.3-1.8
	c-2.5-0.1-4.8,0.4-7,1.6C21.3,5.9,13.9,10,6.7,14.3C2.4,16.9,0.1,20.8,0,25.8C0,34.2,0,42.6,0,50.9c0,1.3,0.2,2.6,0.6,3.8
	c1.1,3.2,3,5.9,6,7.7c7.2,4.1,14.3,8.3,21.5,12.4c1.9,1.1,3.9,1.7,6,1.9c2.6,0.1,5.1-0.3,7.5-1.6c7.2-4.2,14.5-8.4,21.7-12.5
	c2-1.2,3.6-2.7,4.8-4.7c1.1-1.9,2-3.9,2-6.2c0-4.4,0-8.8,0-13.2h0C70.1,34.2,70.1,30,70.1,25.7z M38.2,55H37v4.1c0,1.1-0.9,2-2,2
	s-2-0.9-2-2V55h-6.8c-1.1,0-2-0.9-2-2s0.9-2,2-2h12c2.9,0,5.3-2.4,5.3-5.3s-2.4-5.3-5.3-5.3h-6.5c0,0-0.1,0-0.1,0
	c-5-0.1-9-4.3-9-9.3c0-5.1,4.2-9.3,9.3-9.3H33v-4.1c0-1.1,0.9-2,2-2s2,0.9,2,2v4.1h6.3c1.1,0,2,0.9,2,2s-0.9,2-2,2H31.9
	c-2.9,0-5.3,2.4-5.3,5.3s2.4,5.3,5.3,5.3h6.3c5.1,0,9.3,4.2,9.3,9.3S43.3,55,38.2,55z"/>
</svg>
