<!-- Generator: Adobe Illustrator 21.0.2, SVG Export Plug-In  -->
<svg version="1.1"
	 xmlns="http://www.w3.org/2000/svg" xmlns:xlink="http://www.w3.org/1999/xlink" xmlns:a="http://ns.adobe.com/AdobeSVGViewerExtensions/3.0/"
	 x="0px" y="0px" width="72px" height="72px" viewBox="0 0 72 72" style="enable-background:new 0 0 72 72;" xml:space="preserve">
<style type="text/css">
	.st0{fill:#FFFFFF;}
</style>
<defs>
</defs>
<path class="st0" d="M70.2,17.7C68.7,9.5,62.3,3.3,54.3,1.8C48.2,0.6,42,0,36,0c-6.2,0-12.3,0.6-18.4,1.8C9.4,3.3,3.3,9.6,1.7,17.6
	c-2.3,12.2-2.3,24.6,0,36.6c1.5,8.2,7.8,14.4,15.9,15.9C23.7,71.4,29.8,72,36,72c6.2,0,12.2-0.6,18.3-1.8
	c8.2-1.6,14.3-7.8,15.9-15.9C72.6,42.2,72.6,29.8,70.2,17.7z M51.4,25.4c-0.6,0.9-1.9,1.2-2.8,0.5c-0.8-0.5-1.6-1-2.5-1.3
	c-1.5-0.6-3.1-0.9-4.7-0.9c-4.8,0-9,2.6-11.1,6.5h12.2c1.1,0,2,0.9,2,2s-0.9,2-2,2H28.9c-0.1,0.6-0.1,1.2-0.1,1.8s0.1,1.2,0.1,1.8
	h13.6c1.1,0,2,0.9,2,2s-0.9,2-2,2H30.3c2.1,3.9,6.3,6.5,11.1,6.5c2.1,0,4.1-0.5,5.9-1.4c1-0.5,2.2-0.1,2.7,0.9
	c0.5,1,0.1,2.2-0.9,2.7c-2.4,1.2-5,1.9-7.7,1.9c-7.1,0-13.1-4.4-15.5-10.5h-3.6c-1.1,0-2-0.9-2-2s0.9-2,2-2h2.6
	c-0.1-0.6-0.1-1.2-0.1-1.8s0-1.2,0.1-1.8h-2.6c-1.1,0-2-0.9-2-2s0.9-2,2-2h3.6c2.4-6.1,8.4-10.5,15.5-10.5c2.1,0,4.2,0.4,6.2,1.2
	c1.1,0.4,2.2,1,3.2,1.7C51.8,23.2,52,24.5,51.4,25.4z"/>
</svg>
