<!-- Generator: Adobe Illustrator 21.0.2, SVG Export Plug-In  -->
<svg version="1.1"
	 xmlns="http://www.w3.org/2000/svg" xmlns:xlink="http://www.w3.org/1999/xlink" xmlns:a="http://ns.adobe.com/AdobeSVGViewerExtensions/3.0/"
	 x="0px" y="0px" width="13.6px" height="41.6px" viewBox="0 0 13.6 41.6" style="enable-background:new 0 0 13.6 41.6;"
	 xml:space="preserve">
<style type="text/css">
	.st0{fill:#FFFFFF;}
</style>
<defs>
</defs>
<path class="st0" d="M10.8,29.3V4c0-2.2-1.8-4-4-4s-4,1.8-4,4v25.3C1.1,30.6,0,32.6,0,34.8c0,3.8,3.1,6.8,6.8,6.8s6.8-3.1,6.8-6.8
	C13.6,32.6,12.6,30.6,10.8,29.3z M6.8,2.1c1.1,0,2,0.9,2,2v1.6h-4V4.1C4.8,2.9,5.7,2.1,6.8,2.1z M6.8,39.5c-2.6,0-4.7-2.1-4.7-4.7
	c0-1.7,0.8-3.2,2.3-4c0.3-0.2,0.5-0.5,0.5-0.9V7.7h3.9v22.2c0,0.4,0.2,0.7,0.5,0.9c1.4,0.9,2.3,2.4,2.3,4
	C11.5,37.4,9.4,39.5,6.8,39.5z"/>
</svg>
