<!-- Generator: Adobe Illustrator 21.0.2, SVG Export Plug-In  -->
<svg version="1.1"
	 xmlns="http://www.w3.org/2000/svg" xmlns:xlink="http://www.w3.org/1999/xlink" xmlns:a="http://ns.adobe.com/AdobeSVGViewerExtensions/3.0/"
	 x="0px" y="0px" width="18.2px" height="15.93px" viewBox="0 0 11.2 9.8" style="enable-background:new 0 0 11.2 9.8;"
	 xml:space="preserve">
<style type="text/css">
	.st0{fill:#E53935;}
</style>
<defs>
</defs>
<path class="st0" d="M11.1,9.3L5.9,0.2C5.8,0.1,5.7,0,5.6,0C5.5,0,5.4,0.1,5.3,0.2L0,9.3C0,9.4,0,9.5,0,9.6c0.1,0.1,0.2,0.2,0.3,0.2
	h10.6c0,0,0,0,0,0c0.2,0,0.3-0.1,0.3-0.3C11.2,9.4,11.2,9.3,11.1,9.3z M5.9,7.9c0,0.2-0.1,0.3-0.3,0.3S5.3,8.1,5.3,7.9V7.7
	c0-0.2,0.1-0.3,0.3-0.3c0.2,0,0.3,0.1,0.3,0.3V7.9z M5.9,6.4c0,0.2-0.1,0.3-0.3,0.3S5.3,6.6,5.3,6.4V3.6c0-0.2,0.1-0.3,0.3-0.3
	s0.3,0.1,0.3,0.3V6.4z"/>
</svg>
