<!-- Generator: Adobe Illustrator 21.0.2, SVG Export Plug-In  -->
<svg version="1.1"
	 xmlns="http://www.w3.org/2000/svg" xmlns:xlink="http://www.w3.org/1999/xlink" xmlns:a="http://ns.adobe.com/AdobeSVGViewerExtensions/3.0/"
	 x="0px" y="0px" width="24px" height="24px" viewBox="0 0 24 24" style="enable-background:new 0 0 24 24;" xml:space="preserve">
<style type="text/css">
	.st0{fill:#1DA1F2;}
	.st1{fill:#FFFFFF;}
</style>
<defs>
</defs>
<g id="XMLID_1_">
	<circle id="XMLID_4_" class="st0" cx="12" cy="12" r="12"/>
	<g id="XMLID_2_" transform="translate(-539.18 -568.86)">
		<path id="XMLID_3_" class="st1" d="M549.4,586.5c4.9,0,7.6-4.1,7.6-7.6c0-0.1,0-0.2,0-0.3c0.5-0.4,1-0.8,1.3-1.4
			c-0.5,0.2-1,0.4-1.5,0.4c0.5-0.3,1-0.8,1.2-1.5c-0.5,0.3-1.1,0.5-1.7,0.6c-0.5-0.5-1.2-0.8-1.9-0.8c-1.5,0-2.7,1.2-2.7,2.7
			c0,0.2,0,0.4,0.1,0.6c-2.2-0.1-4.2-1.2-5.5-2.8c-0.2,0.4-0.4,0.8-0.4,1.3c0,0.9,0.4,1.7,1.1,2.2c-0.4,0-0.3-0.1-1.3-0.3
			c0,0,0,0,0,0c0,1.3,1,2.4,2.2,2.6c-0.2,0.1-0.4,0.1-0.7,0.1c-0.2,0-0.3,0-0.5,0c0.3,1.1,1.3,1.8,2.5,1.8c-0.9,0.7-2.1,1.1-3.3,1.1
			c-0.2,0-0.4,0-0.6,0C546.5,586.1,547.9,586.5,549.4,586.5"/>
	</g>
</g>
</svg>
