<?xml version="1.0" standalone="no"?>
<!DOCTYPE svg PUBLIC "-//W3C//DTD SVG 20010904//EN"
 "http://www.w3.org/TR/2001/REC-SVG-20010904/DTD/svg10.dtd">
<svg version="1.0" xmlns="http://www.w3.org/2000/svg"
 width="672.000000pt" height="672.000000pt" viewBox="0 0 672.000000 672.000000"
 preserveAspectRatio="xMidYMid meet">
<metadata>
Created by potrace 1.11, written by Peter Selinger 2001-2013
</metadata>
<g transform="translate(0.000000,672.000000) scale(0.100000,-0.100000)"
fill="#000000" stroke="none">
<path d="M3118 6714 c-2 -2 -35 -6 -73 -9 -89 -7 -210 -22 -210 -25 0 -1 -9
-3 -20 -4 -122 -18 -314 -65 -480 -118 -71 -23 -133 -47 -137 -52 -4 -6 -8 -8
-8 -4 0 8 -105 -35 -216 -88 -39 -19 -76 -34 -82 -34 -6 0 -12 -3 -14 -7 -1
-5 -28 -21 -58 -36 -76 -39 -137 -75 -188 -108 -24 -16 -47 -29 -53 -29 -5 0
-9 -4 -9 -9 0 -5 -8 -12 -19 -16 -10 -3 -28 -13 -39 -23 -53 -45 -62 -51 -62
-47 0 3 -8 -2 -17 -9 -10 -8 -56 -45 -103 -81 -233 -183 -443 -399 -624 -645
-43 -58 -83 -113 -91 -122 -46 -56 -27 -52 26 7 130 141 268 271 374 351 28
21 52 41 55 44 3 4 34 26 70 50 36 24 70 48 75 52 36 31 273 170 370 218 28
13 51 25 53 26 2 1 5 14 8 30 3 16 7 34 8 39 5 24 37 73 68 105 88 91 240 127
368 88 77 -24 153 -93 169 -155 37 -136 -48 -280 -193 -329 -70 -24 -184 -25
-247 -3 l-51 18 -56 -31 c-53 -29 -315 -185 -367 -218 -108 -68 -340 -238
-425 -312 -19 -16 -55 -46 -79 -66 -75 -62 -282 -274 -353 -361 -168 -205
-294 -436 -342 -626 -23 -90 -44 -235 -34 -235 4 0 8 3 8 8 0 26 269 315 436
467 53 50 110 101 125 115 15 14 44 39 65 55 21 17 42 35 48 40 6 6 47 38 91
72 44 35 87 69 95 76 8 8 36 28 62 45 25 18 52 38 60 45 7 7 30 23 51 36 21
13 43 28 50 34 38 36 429 287 446 287 5 0 11 4 13 8 3 8 50 36 158 95 30 16
84 46 120 67 36 20 70 39 75 41 6 2 44 22 85 44 41 21 77 39 80 40 3 1 32 15
65 32 70 36 365 174 380 177 17 5 72 28 178 75 26 12 83 35 125 50 72 28 141
54 205 80 15 6 26 14 25 18 -8 29 59 159 105 205 23 23 114 87 126 89 3 0 15
3 26 6 11 3 49 6 85 6 152 1 300 -126 345 -298 15 -58 21 -158 11 -200 -15
-67 -22 -86 -53 -142 -88 -161 -260 -220 -426 -145 -75 35 -61 37 -203 -28
-35 -17 -66 -30 -69 -29 -3 0 -22 -9 -43 -20 -20 -11 -62 -31 -92 -44 -493
-220 -1080 -535 -1441 -773 -74 -49 -138 -91 -143 -93 -5 -2 -16 -10 -25 -18
-9 -8 -77 -59 -151 -115 -74 -55 -147 -110 -162 -122 -14 -11 -41 -32 -59 -46
-219 -166 -504 -425 -605 -550 -16 -19 -31 -37 -35 -40 -18 -15 -113 -158
-146 -222 -54 -102 -119 -292 -121 -358 -1 -8 -4 -34 -8 -57 -3 -23 -2 -55 4
-73 6 -17 7 -28 2 -25 -5 3 -5 -9 0 -27 5 -18 11 -51 14 -73 4 -34 13 -81 41
-210 9 -40 14 -61 23 -89 l8 -30 22 31 c12 17 19 33 15 37 -3 3 -1 6 5 6 7 0
12 4 12 9 0 18 159 246 215 307 5 6 30 37 55 67 57 70 304 315 390 388 36 29
67 56 70 59 22 24 309 245 380 292 14 10 70 49 125 88 55 39 109 74 121 79 11
5 27 15 35 23 8 7 26 19 39 27 14 8 79 48 145 89 66 42 130 80 142 86 13 6 23
14 23 19 0 4 4 7 10 7 5 0 31 13 58 29 168 99 696 371 720 371 7 0 12 5 12 10
0 6 5 10 11 10 6 0 58 23 115 50 57 28 105 50 108 50 2 0 51 22 109 50 58 27
117 52 131 56 14 3 30 12 37 20 6 8 17 14 23 14 10 0 123 47 241 100 185 82
688 274 920 350 96 31 135 49 150 68 140 177 257 228 453 197 17 -3 40 -9 50
-13 92 -46 118 -62 154 -97 57 -55 95 -119 119 -195 19 -63 27 -177 15 -230
-3 -14 -9 -38 -12 -55 -21 -97 -111 -219 -199 -270 -120 -70 -317 -64 -430 12
-23 15 -61 17 -70 3 -3 -5 -13 -10 -21 -10 -8 0 -33 -9 -57 -20 -23 -10 -136
-57 -252 -104 -327 -133 -339 -138 -350 -147 -5 -5 -16 -9 -25 -9 -8 0 -27 -6
-42 -14 -15 -8 -103 -47 -195 -86 -164 -71 -199 -86 -333 -148 -36 -16 -87
-40 -115 -52 -342 -155 -439 -201 -443 -212 -2 -4 -10 -8 -17 -8 -21 0 -486
-239 -547 -282 -14 -10 -29 -18 -33 -18 -3 0 -31 -16 -61 -35 -30 -19 -57 -35
-60 -35 -19 0 -575 -384 -582 -402 -2 -4 -10 -8 -17 -8 -7 0 -15 -3 -17 -7 -1
-5 -21 -21 -43 -37 -39 -29 -175 -136 -185 -146 -3 -3 -34 -30 -70 -60 -79
-66 -386 -372 -455 -453 -28 -33 -55 -64 -60 -70 -9 -10 -137 -163 -175 -210
-54 -66 -80 -100 -81 -105 -16 -87 3 -171 63 -282 44 -83 156 -253 169 -258 5
-2 9 -8 9 -13 0 -15 74 -108 87 -108 6 -1 17 15 23 34 6 19 16 35 21 35 5 0 9
5 9 11 0 9 54 93 70 109 3 3 18 22 34 44 59 79 262 288 349 359 21 18 49 41
61 52 57 51 215 173 276 215 12 8 41 29 64 46 35 26 126 86 256 169 67 43 235
142 288 170 29 15 55 31 58 36 3 5 9 7 14 4 4 -3 13 2 20 10 7 8 18 15 25 15
8 0 15 3 17 8 2 4 21 16 43 28 109 57 201 108 211 116 7 5 47 27 90 50 44 22
81 44 84 47 3 3 21 14 40 23 19 10 58 30 85 46 72 40 304 167 415 225 52 28
145 77 205 109 236 124 589 296 710 344 53 21 67 32 84 65 60 115 210 198 335
185 161 -17 300 -144 339 -312 12 -52 15 -171 4 -214 -20 -88 -74 -179 -137
-233 -92 -78 -225 -100 -356 -57 -37 12 -39 12 -309 -110 -66 -29 -247 -113
-380 -175 -41 -19 -110 -51 -153 -71 -42 -20 -128 -60 -190 -90 -62 -30 -116
-54 -121 -54 -5 0 -14 -7 -21 -15 -6 -8 -15 -14 -18 -13 -9 2 -394 -190 -406
-203 -6 -5 -18 -9 -27 -9 -10 0 -19 -4 -21 -9 -1 -5 -35 -24 -74 -44 -38 -19
-110 -58 -159 -86 -48 -28 -89 -51 -91 -51 -2 0 -33 -18 -69 -40 -36 -22 -70
-40 -75 -40 -6 0 -10 -3 -10 -7 0 -5 -29 -24 -65 -43 -36 -19 -65 -38 -65 -41
0 -4 -13 -12 -30 -19 -16 -7 -30 -16 -30 -20 0 -4 -11 -12 -25 -18 -14 -7 -31
-17 -38 -22 -7 -6 -70 -50 -142 -99 -71 -49 -134 -93 -140 -98 -5 -5 -26 -19
-45 -33 -19 -13 -37 -27 -40 -30 -16 -17 -132 -100 -140 -100 -6 0 -10 -3 -10
-8 0 -4 -32 -32 -71 -62 -39 -30 -76 -59 -83 -65 -6 -5 -40 -35 -76 -65 -59
-50 -91 -78 -186 -166 -17 -16 -44 -48 -61 -72 -35 -48 -35 -75 -3 -127 27
-42 161 -168 221 -207 14 -9 33 -23 41 -30 7 -7 21 -17 29 -23 9 -5 60 -39
115 -76 143 -94 363 -215 365 -201 1 4 3 16 4 27 4 36 74 153 98 163 4 2 7 8
7 13 0 26 253 280 391 394 280 229 511 381 859 562 63 33 118 61 122 62 5 1
43 17 85 37 43 20 87 40 98 44 48 21 112 48 143 60 20 8 32 19 32 31 0 10 10
44 22 76 16 44 38 73 91 126 38 37 72 66 75 63 3 -3 10 -2 16 3 22 18 112 38
158 34 54 -4 150 -37 172 -59 8 -8 17 -14 21 -14 19 0 92 -93 118 -150 39 -85
42 -194 8 -282 -39 -102 -144 -193 -248 -215 -56 -12 -158 -6 -198 12 -22 10
-42 19 -45 19 -3 1 -10 5 -16 9 -7 4 -17 0 -24 -8 -7 -8 -18 -15 -25 -15 -13
0 -87 -38 -218 -112 -38 -21 -73 -38 -77 -38 -5 0 -15 -6 -22 -13 -7 -7 -44
-30 -83 -52 -235 -130 -765 -497 -845 -585 -8 -9 -23 -21 -31 -26 -23 -13
-135 -113 -242 -215 -84 -81 -88 -86 -66 -94 13 -4 26 -8 29 -9 73 -25 304
-88 375 -102 75 -15 186 -35 220 -40 22 -3 51 -7 65 -9 172 -26 652 -27 780
-1 14 3 48 7 75 10 74 7 198 32 325 65 261 67 434 132 674 253 169 84 446 261
536 341 16 15 32 27 35 27 3 0 13 8 23 18 10 9 54 49 97 87 156 139 321 317
461 500 77 101 274 421 274 445 0 6 4 10 10 10 5 0 9 3 8 8 -1 4 18 48 41 97
24 50 49 104 56 120 29 63 110 284 121 330 3 9 26 92 39 135 3 8 16 65 30 125
24 105 29 130 40 211 3 21 7 46 10 58 19 90 29 267 29 496 -1 205 -4 277 -19
395 -3 22 -7 60 -10 85 -2 25 -7 56 -10 70 -3 14 -8 39 -11 55 -2 17 -6 39 -8
50 -2 11 -11 53 -21 94 -9 40 -18 78 -19 85 -18 86 -80 275 -138 423 -34 87
-166 364 -197 413 -5 8 -37 61 -71 117 -59 98 -190 287 -214 308 -6 6 -27 30
-46 55 -53 69 -75 94 -215 234 -148 149 -172 171 -287 263 -255 202 -535 365
-833 483 -74 29 -277 101 -283 100 -7 -1 -62 13 -94 26 -21 8 -38 12 -38 10 0
-3 -15 0 -32 5 -38 12 -59 16 -108 24 -19 2 -55 9 -80 15 -25 5 -65 12 -90 15
-25 3 -61 8 -80 10 -19 3 -57 8 -85 11 -57 6 -532 14 -537 8z"/>
</g>
</svg>
